<svg xmlns="http://www.w3.org/2000/svg" id="Layer_1" version="1.1" viewBox="0 0 700 600"><defs><style>.st0{fill:#202020}.st1{fill:#010101}</style></defs><path d="M203.16 517.94c.93 1.84 1.61 2.91 2 3.58.41.66.58.88.66.92.16.09-.07-.54.43.18 2.58 4.13 3.27 5.03 3.37 5.36.12.31-.25-.01.64 1.39 3.68 4.88 7.04 8.17 10.28 11.35.21.26.84.89.05.22 2.37 2.18 5.99 5.31 10 8.16 4 2.86 8.41 5.35 11.85 6.83.49.27.73.41.85.49-1.03-.66-1.12-.88-.86-.87 1.62.83 3.21 1.42 4.5 1.97 1.31.51 2.36.91 2.96 1.25-2.08-.82-2.29-.79-3.27-1.15 1.19.47 2.38.9 3.59 1.31 1.58.68.33.32-1.29-.3-1.64-.58-3.62-1.47-3.66-1.38 3.43 1.48 7.28 2.75 10.97 3.75 3.68 1 7.2 1.73 9.99 2.32.56.24-2.72-.35-5.19-.93-2.47-.58-4.15-1.02-.48.05-2.86-.73-5.69-1.58-8.48-2.54 3.16 1.24 1.88.81.53.39-1.34-.46-2.75-.95.14.28 5.56 1.82 8.78 2.46 11.97 3.1 3.2.6 6.41 1.15 12.15 1.93 2.61.17-.83-.32 1.77-.16 8.18.79 11.39 1.17 14.05 1.56 2.66.39 4.79.71 10.82.99 3.13.04 4.36-.18 12.92.54l-2.94.12c11.19.7 6.41-.02 18.12.77-2.09.03-8.8-.34-7.11-.22 7.58.62 5.38.1 11.22.36l1.2.31c11.93.43 25.07.58 38.29.48-.73.08-2.99.17.09.24 8.34-.12 17.25-.36 26.06-.97 8.82-.6 17.55-1.57 25.51-2.93l6-1.44c1.41-.26 2.62-.48 1.12-.07 6.14-1.39.28-.22 3.2-1.02 3.47-.86 4.63-.99 2.44-.39 5.34-1.5 12.94-3.77 20.28-6.93l1.39-.56 1.36-.62c.91-.41 1.81-.83 2.7-1.24.89-.41 1.78-.82 2.66-1.22.85-.45 1.7-.89 2.53-1.31s1.65-.85 2.45-1.26c.8-.41 1.58-.81 2.32-1.24 1.49-.85 2.86-1.7 4.09-2.52-.62.46-1.25.9-1.88 1.33 3.89-2.46 5.81-4.27 7.59-6.01.89-.89 1.73-1.79 2.7-2.87.96-1.08 2.06-2.36 3.31-4.09-.29.47-.62.91-.92 1.36.75-1 1.47-2.05 2.12-3.14.64-1.1 1.23-2.24 1.73-3.43.98-2.38 1.61-4.94 1.71-7.56.22-5.22-1.74-10.44-5.01-14.25-3.26-3.84-7.37-6.55-11.36-8.63-4-2.09-7.95-3.62-11.47-4.9-.7-.16-2.21-.64-4.08-1.27-.93-.33-1.97-.68-3.05-1.05-1.08-.37-2.21-.7-3.33-1.06-2.23-.7-4.42-1.39-6.13-1.89-1.71-.51-2.97-.76-3.31-.75-5.39-1.6-7.3-2.28-9.79-2.93-1.25-.33-2.63-.7-4.67-1.25-1.02-.26-2.19-.59-3.6-.93-1.42-.32-3.06-.69-4.99-1.13-2.07-.45-3.62-.73-5.31-.98-1.69-.23-3.51-.47-6.08-.92l-.08-.26-3.52-.52-3.53-.41-3.7-.86c-1.62-.23-3.24-.47-4.87-.63 1.94.23 4.1.69 3.8.71-1.9-.29-4.01-.52-6.11-.8-2.09-.28-4.18-.57-6.04-.82-1.86-.22-3.48-.42-4.65-.56-1.17-.15-1.89-.26-1.94-.3-1.51-.12-3.01-.27-4.52-.35l-4.53-.24-4.53-.24c-1.51-.07-3.02-.08-4.54-.12.2-.04 1.06-.05 2.17-.03.56 0 1.17.01 1.8.02.63.03 1.27.05 1.87.07-2.42-.12-3.75-.09-4.5-.14-.76-.03-.95-.07-1.12-.12-.34-.07-.57-.16-5.01-.19 1.19.09-.64.12-.85.16-2.21-.13-5.84-.15-9.84-.18-2-.03-4.1.08-6.16.12-2.06.07-4.09.11-5.95.2.47-.09.95-.15 1.42-.22-3.37.12-6.82.35-10.34.54-3.52.25-7.11.61-10.74.92-3.63.41-7.31.86-11.01 1.31l-5.57.81c-1.86.31-3.73.58-5.59.93 2.68-.44 3.73-.48 3.56-.38-.17.13-1.56.39-3.74.81l-1.79.07c-2.78.68 4.57-.75-1.17.51-5.54 1.09-3.78.47-.62-.26-1.12.22-2.24.49-3.36.74-1.12.26-2.24.49-3.35.78-.41.03 1.14-.41 1.54-.58-.68.18-1.75.45-3.02.75s-2.77.6-4.28 1.02c-1.51.4-3.08.76-4.48 1.21-1.4.43-2.67.85-3.62 1.23l-.39.04c-7.21 2.37-12.28 4.65-16.91 6.96-4.63 2.32-8.81 4.78-13.85 8.4-.03.17-1.06.92-2.38 1.98-.65.56-1.38 1.17-2.13 1.81-.73.65-1.52 1.26-2.15 1.94-1.67 1.55-3.47 3.03-5.11 4.82-1.65 1.77-3.2 3.79-4.34 6.16-1.14 2.34-1.72 5.2-1.17 8 .56 2.81 2.16 5.26 3.96 7.37.64.75 1.18 1.29 1.61 1.7.43.41.75.71.98.93.46.43.58.51.62.51.05-.01-.26-.4 1.02.78.07.13.58.75 1.35 1.41.77.68 1.71 1.5 2.49 2.19.77.72 1.49 1.19 1.67 1.35.19.14-.16-.02-1.31-.87 1.31 1.01 2.56 1.85 3.7 2.67.28.2.56.41.85.59.29.18.57.35.85.51.56.34 1.1.66 1.63.98.53.32 1.04.63 1.55.93s1.04.54 1.54.81c1.03.52 2.04 1.04 3.08 1.56 4.24 1.88 8.95 3.85 17.01 5.89-.86-.26-1.77-.54-2.35-.71-.57-.2-.79-.3-.28-.18 2.91.77 6.6 1.8 6.17 1.76l-.78-.15c4.56.96 9.48 1.89 14.54 2.63 5.07.72 10.28 1.36 15.36 1.85 10.19.96 19.89 1.72 27.28 1.94l-.83-.03c2.55.1 5.09.23 7.65.31l7.65.24c7.04.27-4.23 0 .98.31 4.13.04 7.82.16 11.26.18 3.43.05 6.6.12 9.69.09h4.57c1.52 0 3.03-.05 4.57-.09 1.54-.04 3.09-.08 4.69-.13 1.6-.07 3.23-.18 4.93-.28 1.32 0 2.89 0 4.67-.06 1.77-.09 3.74-.21 5.85-.35 1.06-.07 2.15-.14 3.26-.24 1.12-.12 2.26-.23 3.42-.35 2.32-.26 4.75-.45 7.17-.83 2.43-.35 4.9-.67 7.32-1.04l7.13-1.23c1.16-.18 2.28-.43 3.39-.66 1.1-.22 2.17-.44 3.22-.65 1.04-.2 2.05-.41 3.01-.6s1.88-.43 2.75-.61l-.83.07c3.54-1.04 4.34-1.01 6.98-1.65-.4-.01-3.91.85-1.71.22 1.9-.45 3.76-1.06 5.64-1.62 1.88-.58 3.78-1.11 5.66-1.72 3.77-1.23 7.51-2.61 11.2-4.2 7.36-3.18 14.54-7.27 20.59-12.85 3.02-2.8 5.72-5.91 7.99-9.42 1.1-1.79 2.03-3.81 2.33-6.02.33-2.21-.07-4.49-.89-6.5-.83-2.02-2.04-3.81-3.39-5.41-1.35-1.61-2.86-3.03-4.41-4.38-1.56-1.28-3.13-2.57-4.69-3.84-1.57-1.26-3.22-2.42-4.82-3.63-1.17-.89-2.19-1.54-3.03-2.09-.85-.55-1.55-.99-2.15-1.35-.6-.37-1.1-.66-1.57-.93-.47-.26-.91-.47-1.37-.71-1.83-.93-3.89-2.19-10.3-5.87l3.79 1.81c-20.75-11.46-44.54-19.01-67.21-23.21 1.36.2 1.42.15 3.62.6-2.36-.61-6.79-1.47-10.65-2.09-1.93-.28-3.72-.54-5.03-.71-.66-.08-1.19-.15-1.56-.19-.37-.04-.59-.05-.6-.04-3.55-.58-.8-.27-2.98-.7-1.2-.24-2.57-.38-3.98-.54-1.42-.15-2.87-.3-4.25-.45-2.77-.27-5.24-.58-6.54-.76-.43-.07 1.38.05 2.26.16-.4-.04-.93-.09-1.54-.16-.62-.05-1.32-.1-2.07-.16-1.49-.12-3.14-.26-4.61-.37-2.93-.24-5.07-.39-3.56-.16-2.15-.24-4.27-.31-6.34-.41-2.07-.08-4.08-.17-6.04-.24-.98-.03-1.94-.07-2.9-.11h-2.82c-1.85-.01-3.64-.03-5.36-.07-1.12.05-2.61.07-4.24.07-1.63.05-3.38.1-5.04.16-3.32.1-6.26.2-6.96.39.3-.24-3.5-.03-8.04.33-1.14.09-2.32.18-3.5.28-1.18.09-2.36.18-3.47.35-2.22.29-4.22.57-5.57.77 1.81-.33-4.74.46-2.63.05-3.12.32-6.06.89-8.11 1.27s-3.18.63-2.63.63c-1.43.18-2.86.39-4.27.6s-2.8.56-4.18.83c-2.75.59-5.42 1.2-7.94 1.77-1.27.26-2.46.65-3.62.95l-3.33.89c-2.11.55-4.01.99-5.62 1.27-2.23.65-4.4 1.42-6.58 2.11-2.17.71-4.31 1.42-6.45 2.11-4.19 1.62-8.32 3.15-12.37 4.77-1.99.88-3.97 1.75-5.93 2.62-.98.43-1.96.87-2.94 1.3-.97.45-1.97.83-2.91 1.33-3.79 1.93-7.57 3.79-11.26 5.73.16-.35 4.31-2.38 8.28-4.38 3.94-2.09 7.94-3.66 7.52-3.73-.91.41-1.79.8-2.65 1.18-.43.19-.85.38-1.27.57-.41.21-.81.42-1.21.62-1.6.83-3.13 1.61-4.61 2.38-2.96 1.54-5.76 2.91-8.42 4.55-2.7 1.56-5.38 3.13-8.25 4.8-2.82 1.74-5.83 3.64-8.85 6.25-.79.67-1.05.93-1.04.88.02-.05.34-.39.81-.83.92-.9 2.46-2.13 3-2.57-3.2 2.4-6.16 5.18-8.28 8.56-2.14 3.35-3.22 7.3-3.24 11.14.01 1.92.2 3.83.64 5.67.45 1.83 1.02 3.62 1.8 5.3 1.54 3.37 3.64 6.42 6.2 8.95-.03 0-.32-.28-.73-.68-.39-.43-.9-.98-1.38-1.54 1.75 2.26 4.6 4.75 4.47 4.4-.37-.28-.7-.59-1.05-.89-.34-.31-.7-.6-1.02-.93-1.48-1.73.47.34 3.2 2.37 1.38 1 2.92 2.02 4.19 2.74 1.27.72 2.21 1.19 2.34 1.22-2.17-.96.83.85 3.68 2.17 1.42.68 2.78 1.25 3.35 1.54.56.28.3.28-1.5-.3 1.71.68 3.89 1.42 3.54 1.17 2.54.96 3.34 1.29.7.49 4.71 1.64 6.27 2.01 7.7 2.4 1.44.39 2.76.75 7.06 2.06-.05.07-1.79-.43-2.72-.62 4.4 1.21 8.81 2.41 16.14 4.42-.45-.07.38.22-1.81-.37 3.16.84 6.08 1.6 8.91 2.32 2.84.66 5.61 1.23 8.41 1.85 1.4.3 2.8.62 4.23.93 1.44.31 2.89.67 4.4.93 3.02.58 6.22 1.21 9.73 1.94-2.11-.24-.91.02.89.4.9.19 1.95.42 2.82.6s1.57.33 1.75.43l7.62 1.15-3.03-.64c3.33.54 6.47 1.02 9.5 1.44 3.04.35 5.96.69 8.83 1.11l-4.99-.51 6.27.78 3.14.39 1.56.2 1.57.14c-1.19-.12-2.36-.28-3.55-.46l-3.54-.51c3.39.36 3.22.24 3.31.19.05-.03.16-.03.81.03.33.04.79.09 1.45.18l2.63.27c-1.82-.14 6.71.64 10.19 1.14h-.02c.83.05 1.67.11 2.53.17.87.03 1.77.07 2.72.11 1.9.09 4 .21 6.48.39 1.29.17-1.06.26-.22.37.83-.01 2.22.04 3.92.12.85.04 1.77.09 2.74.13.97.02 1.97.04 2.99.07 4.06.09 8.22.18 10.31.1-1.39.03-1.46.18-1.01.22l2.76-.13c3.12.05 3.58.07 3.08.2 9.4-.03-2.99-.35 8.17-.27-.87.02-.45.05-2.28.09h4.17c1.38 0 2.74-.01 4.1-.09 2.71-.12 5.38-.24 8.03-.36 5.3-.17 10.45-.66 15.59-.98 3.05.07-8.96.74-5.48.73 3.7-.3 7.46-.58 11.25-.93 3.77-.45 7.58-.89 11.36-1.35 3.79-.39 7.53-1.05 11.24-1.57 3.7-.57 7.36-1.02 10.89-1.68l-2.64.43c.95-.38 3.58-.8 6.88-1.3 1.65-.26 3.45-.54 5.3-.83.92-.16 1.86-.29 2.77-.49.91-.2 1.82-.41 2.7-.62-1.73.4-2.24.71-1.77.57 9.6-2.09 19.77-3.87 33.9-8.77l-1.72.7c2.78-.86 6.38-2.16 9.95-3.71 1.78-.79 3.56-1.59 5.22-2.48 1.66-.89 3.19-1.82 4.47-2.76 1.5-1.15 4.17-3.6 2.42-2.25 1.88-1.55 3.56-3.33 4.86-5.36 1.31-2.02 2.23-4.32 2.46-6.72.1-.6.05-1.2.05-1.8.03-.6-.12-1.19-.19-1.77-.17-1.18-.57-2.31-1.06-3.37-1.02-2.13-2.54-3.94-4.28-5.4-1.73-1.48-3.64-2.67-5.59-3.72-1.95-1.05-3.96-1.96-5.95-2.8-4-1.73-7.93-3.47-11.81-5.3 1.88.81 4.52 1.86 3.02 1.21-4.44-1.99-9.04-3.61-13.57-5.36 1.01.59 1.75.79 4.55 2.03-1.76-.57-5.63-1.98-9-3.28 6.15 2.27.06-.33-2.57-1.38.43.2-.51-.05-.3.08-7.1-2.77-1.33-.07-11.1-3.64l.55.09c-.93-.3-1.84-.6-2.74-.89l-1.35-.43c-.45-.13-.91-.26-1.38-.38-1.84-.51-3.71-1.04-5.72-1.66-1.61-.7 4 1.09 4.31 1-2.82-.84-5.64-1.58-8.38-2.32-2.74-.77-5.4-1.5-7.97-2.22 1.22.3 2.71.62 4.18 1.04 1.47.42 2.94.83 4.14 1.18-2.76-.93-4.28-1.49-5.67-1.86s-2.59-.68-4.68-1.23l.41.11-9.65-2.59 2.45.7c-3.62-.72-7.32-1.4-11.31-2.27-3.99-.83-8.26-1.88-13.21-2.47 9.58 1.32 1.61.08 2.38-.03-2.49-.5-6.28-1.23-5.19-1.11-4.67-.6-7.69-1.59-14.33-2.12-.28-.12-4.99-.67-3.91-.72-6.07-.75 1.42.33.89.35-2.34-.24-4.88-.58-7.59-.93-2.72-.28-5.59-.58-8.6-.89-1.5-.16-3.04-.31-4.61-.47-.79-.08-1.57-.16-2.37-.24-.79-.08-1.61-.1-2.41-.16-3.24-.18-6.58-.33-9.96-.42-1.46-.05-2.77-.11-3.97-.16-1.2-.03-2.28 0-3.29 0-2.01.03-3.72.05-5.4.07-1.68.02-3.33.04-5.24.07-.96 0-1.97.01-3.09.03-1.12.05-2.34.09-3.69.15-3.66-.03 2.99-.35 2.99-.35-5.9.04-10.34.15-15.89.41 1.12-.14-.04-.12-1.73-.09-4.46.31-2.96.47-8.84.74 1-.15 2.28-.37 4.43-.6-2.62.22-5.23.43-7.86.65-.66.05-1.31.12-1.98.17l-1.98.24c-1.33.16-2.66.33-4.02.49-1.45.02 3.25-.54 5.15-.83-3.04.35-6.98.81-10.4 1.2-1.71.21-3.28.41-4.55.57-1.26.19-2.2.39-2.67.51 1.29-.17 2.59-.34 3.9-.43-2.21.24-1.17-.06.47-.27 5.2-.71 7.53-.72 7.83-.67l-3.85.45c2 .01 5.87-.41 10.21-.93 4.36-.35 9.19-.79 13.08-1.03l-3.22.54 3.98-.39c1.33-.13 2.66-.28 3.99-.33 1.71.04 2.87.2-.98.34 5.59.02 4.94-.24 9.75-.18.53.01.29.03-.2.06l5.46-.23c-1.07.09.91.21-2.45.24l3.5-.03c1.11.01 2.16.03 3.16.05 2 0 3.78 0 5.38.01 3.18 0 5.62-.02 7.45.14h-.82c13.58.56 1.32-.18 11.53.07l3.41.48c1.14.17 2.27.3 3.4.52l1.35-.12c1.4.14 4.16.42 3.64.47 5.22.33-.87-.19 2.15-.06 3.35.45 8 .75 11.96 1.35 3.97.52 7.28.98 8.01 1.27 2.43.14-6.38-1 .78-.16.99.36 3.07.54 5.62.98 2.57.4 5.64.86 8.67 1.48-1.9-.12-7.64-1.23-1.59.01.93.07 2.13.24 3.5.47.68.12 1.4.24 2.15.38.75.13 1.52.28 2.29.47 3.1.72 6.38 1.52 8.93 2.03.15-.1 2.93.43 6.72 1.29 3.77.96 8.55 2.2 12.8 3.24-.14-.01.78.25 2.36.68 1.56.48 3.79 1.17 6.27 1.94 2.48.76 5.22 1.61 7.82 2.4 1.31.38 2.56.82 3.73 1.24 1.17.41 2.26.8 3.21 1.14l-.24-.03c.79.12 3.16.87 6.06 1.83 1.45.49 3.03 1.02 4.61 1.55 1.56.6 3.12 1.19 4.54 1.73-.28.07-1.33-.26-4.44-1.38l5.34 2.07c1.29.4 2.98 1 6.46 2.32l-1.42-.32c1.77.7 3.58 1.33 5.38 2.08 1.79.76 3.63 1.52 5.53 2.32 1.89.81 3.85 1.64 5.89 2.51 1.02.45 2.06.9 3.12 1.38 1.05.49 2.11 1.02 3.18 1.61.29.03-1.37-.98-1.97-1.4-.3-.21-.32-.3.32-.05.64.26 1.96.81 4.22 2.11.27.3.52.62-1.86-.68.79.39 2.81 1.48 4.21 2.61-1.14-.77-2.33-1.47-3.56-2.09 1.9 1.15 2.37 1.48 2.78 1.71.41.24.76.37 2.11 1.52-.12.04 1.82 1.88 1.35 1.63-.14-.17-.37-.37-.61-.63a9.35 9.35 0 0 0-.84-.8c-.3-.28-.62-.56-.96-.8-.33-.25-.63-.49-.92-.66 1.62 1.15 3.22 2.67 4.3 4.2 1.1 1.52 1.63 3 1.84 3.74-.02-.17.04-.19.2.17.07.18.17.47.3.88.14.41.18.97.31 1.67.15 1.85-.07 2.93-.18 3.56-.18.63-.25.83-.31.95-.13.22-.07.1-.91 2.06-.33.83-1.08 2.28-1.96 3.4-.4.59-.83 1.09-1.14 1.48-.3.39-.49.66-.47.71-.77.79-1.25 1.23-1.65 1.51l-.98.72c-.74.63-1.99 1.66-3.53 2.64-1.57 1.02-3.2 1.93-4.9 2.72-3.19 1.54-5.51 2.5-3.41 1.76l.93-.39c-.17.07-.37.17-.59.26h.03-.03c-5.88 2.68-12.31 4.73-18.8 6.4-3.24.84-6.51 1.61-9.75 2.32-3.24.68-6.46 1.35-9.59 2.05v-.08c-1.87.41-3.84.89-5.85 1.27-2.01.37-4.04.74-6 1.1l-5.6 1.04c-.87.17-1.7.33-2.48.48-.79.14-1.52.26-2.19.38-2.25.32-5.32.62-4.38.39l-6.43 1c-.97.13-2.01.33-3.35.45l-5.07.49c5.84-.77-2.03.1 5.99-.75-3.79.37-6.11.6-8.5.83-1.19.12-2.4.26-3.83.43-1.42.17-3.05.41-5.08.58 2.76-.41-5.73.18-9.33.5l5.33-.25c-2.03.16-3.93.3-5.77.45-1.84.14-3.63.28-5.44.32l1.94-.34c-3.89.08-7.59.22-11.13.39-1.77.07-3.5.21-5.2.24l-5.01.12c-3.28.07-6.44.16-9.52.16-3.08-.08-6.08-.21-9.04-.42-4.13.07 8.45.35 4.76.47-3.58-.12-7.23-.31-10.27-.49-3.03-.24-5.45-.51-6.57-.57-4.89-.37-7.18-.41-9.53-.45-2.34-.12-4.75-.24-9.86-.77 1.3.22 2.51.58-5.15-.05-7.12-.93-8.7-1.5-4.2-1 1.71.21 2.53.35 2.45.37.58.06 1.2.13 1.76.2.56.04 1.07.07 1.42.1.7.04.75 0-.66-.18h-.93c-3.52-.54-13.3-1.79-10.98-1.65-5.38-.6-2.32-.14 1.65.41-2.28-.32-4.3-.6-6.21-.87-3.66-.6-7.32-1.2-10.99-1.79-1.93-.32-4-.64-6.32-1.14 1.46.34 2.8.72 1.33.43-6.8-1.4-8.3-1.65-9.27-1.77-.48-.06-.83-.09-1.63-.22-.4-.07-.91-.16-1.62-.28-.7-.13-1.6-.28-2.74-.56-5.17-1.35 1.94.1-7.31-1.92-5.61-1.4-1.13-.51 1.12-.07-2.11-.45-4.15-.9-6.08-1.35-.95-.22-1.89-.46-2.82-.72l-2.66-.75c-3.43-.98-6.41-1.84-8.77-2.52l4.4 1.1c-2.63-.67-4.79-1.22-6.96-1.85.81.33 1.63.58 2.45.87-.64-.18-1.26-.35-1.82-.51l-1.49-.47c-.85-.27-1.37-.45-1.33-.48-2.66-.68 1.92.91-3.34-.52-3.37-1.13-10.4-3.05-11.46-3.73 2.63.92 3.91 1.28 4.44 1.42.54.14.35.05.11-.06-.47-.22-1.15-.53 3.37.83-1.75-.51-3.89-1.13-6.42-2-.37-.15.37.07 1.07.28-5.03-1.77-6.17-2.17-7.4-2.53-.61-.18-1.23-.37-2.33-.77-1.09-.43-2.69-1.04-5.11-2.3 1.29.53-2.13-1.39-3.6-2.36.92.59 1.5.95 1.78 1.13.28.19.26.22.02.12-.49-.2-1.92-.91-3.59-2.05-1.13-.83-2.21-1.71-3.26-2.63-.41-.37-.77-.7-1.09-.99l-.85-.85c-1.03-1.05-1.75-1.85-2.8-3.34.39.58.82 1.12 1.23 1.69.45.53.88 1.08 1.35 1.59-1.04-.94-3.46-3.59-5.52-8.05-.01-.11.08.09.25.43.17.33.41.78.63 1.2.44.83.87 1.48.44.72-1.45-2.29-2.56-5.22-3.1-8.49-.24-1.63-.39-3.36-.26-5.11.12-1.75.38-3.56.97-5.33.13-.41.27-.71.38-.93.11-.22.19-.38.24-.49.12-.21.16-.22.19-.22.07 0 .11.03.81-1.28.96-1.82 1.94-3.1 2.87-4.13.91-1.02 1.75-1.81 2.64-2.56 1.78-1.5 3.68-2.93 7.44-5.38-1.14.6-1.79 1-1.52.77.14-.12.51-.37 1.18-.83s1.64-1.09 3.01-1.9c-4.26 2.49-8.41 5.23-11.79 8.7 2.11-2.28 4.59-4.25 7.18-6.06-1.87 1.22-3.76 2.62-5.33 4.03-1.59 1.4-2.84 2.8-3.69 3.8.35-.43.65-.81.91-1.13.27-.3.5-.56.68-.77.37-.42.58-.62.64-.7.12-.14-.39.26-1.17 1 2.17-2.13 4.53-4 7.11-5.82 1.29-.9 2.63-1.79 4.06-2.64 1.44-.83 2.93-1.67 4.49-2.5l.04.51c2.34-1.27 4.52-2.51 6.69-3.74 2.21-1.13 4.41-2.26 6.69-3.42 4.5-2.47 9.61-4.59 15.97-7.32l-4.11 1.69c.41-.22 1.1-.56 1.98-.95.44-.2.92-.41 1.44-.63.51-.23 1.06-.46 1.65-.66 2.31-.85 4.94-1.81 7.02-2.63-.34.29 2.3-.64 4.13-1.21-.26-.05 9.65-3.05 10.76-3.73.49-.14.99-.29 1.49-.41l1.51-.35 3.01-.69c2.7-.69 4.82-1.27 6.64-1.78.9-.28 1.75-.45 2.55-.66s1.56-.39 2.33-.58c1.52-.39 3.03-.77 4.82-1.19.89-.2 1.86-.43 2.93-.67 1.07-.24 2.26-.4 3.58-.63-1.59.35-1.17.35-1.23.43-.03.04-.2.09-.79.22-.6.11-1.61.35-3.36.77.87-.18 1.73-.37 2.52-.53.8-.14 1.52-.26 2.15-.36 1.25-.21 2.05-.37 2.07-.43 1.04-.12 3.49-.58 6.08-1.06l1.96-.36c.65-.1 1.29-.18 1.9-.26 1.23-.16 2.32-.28 3.15-.34 1.49-.25 1.96-.47 5.97-.94.44-.02 0 .08 0 .08 0-.02.39-.08.93-.16.53-.09 1.21-.16 1.77-.22 1.13-.12 1.82-.23.05-.18 2.77-.09 6.08-.29 9.64-.54 1.77-.16 3.62-.19 5.49-.26l5.66-.2c3.77-.21 7.51-.09 10.89-.09 1.69.03 3.3.05 4.79.07 1.48.05 2.84.18 4.04.28 7.83.2 17.25.89 24.32 1.65-.46 0-.03.07-1.36-.1 4.86.66 6.37.74 8.05.83.84.05 1.72.1 3.09.24 1.36.15 3.2.46 5.95.93 5.59 1.14-5.88-.8-2.38-.15.72.37 4.05.89 8.12 1.49 4.06.64 8.85 1.51 12.48 2.45l-1.79-.35c5.57 1.33 13.72 2.8 22.71 5.53 0 0-.45-.08-.07.06 1.54.41 3.43.96 5.53 1.56 2.09.62 4.36 1.41 6.72 2.18 2.34.83 4.75 1.72 7.09 2.62 2.32.97 4.61 1.84 6.67 2.77-2.64-.98-3.81-1.51-2.31-.68 1.87.76 1.62.6 1.84.6.22 0 .9.22 4.59 1.89 1.18.58 3.02 1.63 4.67 2.52.82.46 1.6.87 2.19 1.24.59.37 1.01.66 1.15.81-.56-.3-1.1-.62-1.67-.91l-1.7-.85-3.39-1.71c1.67 1.02 3.89 2.08 6.08 3.23 1.09.58 2.18 1.17 3.22 1.73s2.03 1.09 2.87 1.64l-.5-.16c1.25.75 2.34 1.41 3.32 2 .98.58 1.86 1.09 2.62 1.61 1.56 1 2.82 1.8 4.12 2.62 1.29.83 2.54 1.75 4.14 2.89 1.62 1.1 3.44 2.61 5.87 4.59l-.95-.89c2.78 2.01 3.8 3.03 4.78 4.07.49.52.96 1.06 1.58 1.78.84.96 1.61 1.99 2.32 3.05.26.64.48 1.28.64 1.93.45.98.96 2.41 1.05 4.15.13 1.74-.32 3.75-1.27 5.7-.47.98-1.04 1.94-1.67 2.87s-1.34 1.84-2.01 2.75c-.72.87-1.44 1.73-2.16 2.55-.77.78-1.46 1.58-2.21 2.26 1.57-1.67 3.94-4.27 5.99-7.28 1.02-1.5 1.95-3.11 2.51-4.73.28-.81.48-1.61.57-2.39.08-.73.08-1.47 0-2.2.1 1.04.03 2.47-.46 3.98-.47 1.52-1.32 3.09-2.28 4.53-1.98 2.87-4.09 5.34-4.88 6.19.63-.64 1.27-1.43 1.91-2.2.67-.75 1.25-1.58 1.81-2.26-3.02 4.52-8.2 9.79-15.88 14.36.53-.65-4.43 2.37-10.72 4.99-3.14 1.32-6.58 2.57-9.63 3.54-1.52.51-2.97.89-4.22 1.23-1.25.34-2.32.61-3.1.78l-2.82.87-2.86.75c-1.91.49-3.82.98-5.74 1.47-1.94.41-3.89.81-5.85 1.22-.98.2-1.96.4-2.95.6-1 .16-2 .33-3 .5-2.01.33-4.04.68-6.1 1-2.07.27-4.16.54-6.29.82-2.12.31-4.29.49-6.5.72-2.21.22-4.44.49-6.74.63 6.55-.02-5.36.41-4.19.81-2.14.19-3.62.26-4.61.3-1 .05-1.5.06-1.69.05-2.17.04-4.34.14-6.5.13h-6.5c-3.08-.05 4.08-.19 3.68-.28-2.34.05-3.77.06-4.67.06-.91-.02-1.3-.05-1.59-.07-.59-.06-.78-.14-3.88-.19 1.27.16-3.26.3-8.62.11 2.51.11 5.02.25 7.53.3-13.13.13-11.33-.5-24.56-.77l4.19.04c-3.39-.11-9.65-.38-15.89-.72-6.24-.34-12.46-.69-15.8-.75-1.2-.14-2.77-.39.22-.2-8.1-.61-17.11-1.18-25.59-2.3-8.48-1.1-16.43-2.8-22.37-4.82l1.2.25c-.72-.2-1.4-.4-2.06-.59-.66-.18-1.32-.36-1.98-.6-1.32-.47-2.76-.92-4.47-1.69.2.03 1.15.37-.12-.19-.37-.15-1.01-.41-1.83-.75-.41-.17-.86-.35-1.34-.55-.24-.1-.49-.2-.75-.31-.24-.12-.5-.24-.76-.37-1.02-.51-2.11-1.06-3.17-1.59-1.05-.54-2-1.19-2.84-1.7l1.48.82c.49.27.98.56 1.5.79-6.83-3.81-11.52-7.64-15.51-11.67-1.05-.97-1.98-2-2.84-3.08-.85-1.08-1.61-2.24-2.15-3.5-1.13-2.51-1.19-5.57.09-8.52.08.04.41-.62 1.06-1.65.64-1.03 1.64-2.39 2.91-3.8.64-.7 1.33-1.42 2.06-2.12l2.28-2.05c.76-.66 1.46-1.36 2.19-1.93.72-.58 1.4-1.12 2-1.6l-.14.18c1.73-1.48 3.55-2.72 5.26-3.97.85-.65 1.75-1.18 2.61-1.75.87-.56 1.72-1.11 2.57-1.66 1.75-.99 3.43-2.03 5.14-2.93.86-.45 1.71-.89 2.57-1.33l1.27-.66 1.29-.6c6.88-3.24 13.9-5.83 22.11-8.08 5.15-1.17 13.89-3.11 23.57-4.42 1.21-.17 2.43-.33 3.66-.5l3.71-.43c2.48-.27 4.97-.6 7.42-.81 4.91-.41 9.66-.83 13.91-.96-2.6.08.41-.29 3.43-.49 1.99-.11 4.75-.2 6.93-.29 2.18-.09 3.79-.12 3.47.04l-1.42.03c.75.06 1.83.08 3.12.09 1.29.02 2.8.05 4.41.07 1.61 0 3.33.02 5.05.03 1.71 0 3.43.09 5.03.14l1.07-.38c1.04.07 2.13.14 3.25.21 1.12.06 2.28.12 3.45.23 2.36.17 4.82.35 7.34.53 1.26.07 2.53.2 3.8.31 1.27.12 2.55.23 3.83.35 1.28.12 2.56.23 3.83.34 1.27.15 2.53.29 3.77.43 2.49.3 4.92.56 7.23.86 2.3.35 4.5.68 6.52.99 1.01.16 1.98.31 2.9.46.92.16 1.78.34 2.59.5 1.62.33 3.01.63 4.13.91 4 .57 8.89 1.71 12.83 2.43l-.26.17c2.73.61 5.09 1.26 7.34 1.81 1.12.28 2.21.56 3.3.83 1.08.26 2.15.6 3.24.89 2.18.61 4.44 1.23 6.99 1.94 2.53.77 5.34 1.63 8.66 2.65l-2.74-.68c1.86.59 3.4 1 4.75 1.39 1.35.4 2.52.72 3.68 1.03s2.3.62 3.58.99c1.48.42 2.93.9 4.37 1.44l1.88 1.1c3.12 1.29 6.16 2.8 8.97 4.63 2.82 1.82 5.37 4.02 7.37 6.63.54.63.93 1.34 1.38 2.03.24.33.39.71.58 1.07.18.37.37.72.54 1.09.61 1.5 1.1 3.05 1.35 4.66.52 3.2.19 6.5-.85 9.58.01-.11.02-.26.12-.64s.26-.98.48-2.01c-.31 1.5-1.04 3.65-2.23 5.85-1.19 2.19-2.82 4.43-4.5 6.28-1.66 1.86-3.32 3.37-4.42 4.36s-1.62 1.46-1.1 1.19c-.16-.07-2.84 2.13-6.58 4.38-.93.57-1.94 1.12-2.98 1.67-1.03.56-2.08 1.12-3.1 1.68-.51.28-1.02.56-1.52.82-.51.24-1.02.48-1.5.72-.98.47-1.9.9-2.72 1.3l.95-.67c-1.38.7-2.42 1.25-3.35 1.7-.94.41-1.74.77-2.61 1.15-.88.37-1.83.77-3.06 1.29s-2.79 1.01-4.84 1.73c-1.96.63-1.76.41.84-.41-1.63.51-2.75.91-3.65 1.21a102 102 0 0 0-2.31.73c-.72.24-1.48.48-2.57.81-.54.16-1.17.35-1.9.54-.75.18-1.61.37-2.62.61l2.97-.87c-6.84 1.65-6.27 1.64-10.05 2.55-1.08.24-2.45.52-3.89.81-1.46.22-3.01.47-4.45.69-2.89.46-5.38.65-5.91.63-.46.12-1.65.35-3.23.61-1.59.25-3.58.45-5.65.64-.56-.02.93-.22 1.69-.32-1.47.14-2.84.26-4.14.38-1.3.1-2.52.2-3.67.28-1.16.09-2.26.19-3.31.28-1.05.07-2.06.14-3.04.2-3.92.29-7.38.43-11.43.45-.17-.07-.7-.09-1.38-.11 9.37-.18 16.9-.7 16.2-.62-.01-.19-7.57.16-1.58-.43-6.04.56-16.42 1.16-23.8 1.05-.36-.02-.7-.04-.98-.07l.77-.03c-1.7-.02-3.22.01-4.67.03-2.36-.05-3.85-.07-6.11-.12-.87-.18-8.68-.24-12.46-.37.3.23-4.63.05 0 .37-.6-.03.71 0 3.22.05.57 0 1.24.01 1.61.01-.07 0-.16 0-.26.01 2.48.04 5.72.09 9.39.15-2.99.08-6.1.12-10.28-.1-1.94.09-4.08.18-5.28.22-5.16-.44-15.11-1.02-16.49-1.28-5.76-.2-12.54-.55-18.8-.9-6.25-.35-11.96-.69-15.59-.78-3.28-.21-3.75-.43-4.97-.6 1.89.12 4.13.31 5.16.33-3.27-.2-8.11-.61-12.33-.98s-7.8-.77-8.59-.72c-4.08-.62-2.92-.54-2.15-.47.78.04 1.15.14-4.44-.72l1.52.16c-5.48-.98-10.4-2.04-15.03-3.35-4.63-1.28-8.95-2.83-13.2-4.77a74.513 74.513 0 0 1-12.55-7.28 74.966 74.966 0 0 1-12.43-11.23c1.14 1.27 1.74 1.88 1.95 2.17a90.93 90.93 0 0 1-12.97-16.89c-1.82-3.09-3.54-6.27-4.78-9.63-1.25-3.35-2.03-6.91-1.85-10.47.14-3.56 1.33-7.02 3.12-10.09 1.82-3.07 4.28-5.7 6.97-8.02 2.7-2.31 5.7-4.24 8.77-5.95.76-.44 1.56-.82 2.33-1.23.79-.38 1.59-.74 2.39-1.1 1.59-.72 3.18-1.45 4.76-2.17 3.67-1.44 5.69-2.28 7.35-2.99 1.69-.64 3.01-1.14 5.27-2l1.69-.33c2.61-.85 5.23-1.69 7.86-2.51 2.84-.69 5.49-1.35 8.14-1.84 1.32-.22 2.63-.43 3.95-.65 1.32-.2 2.63-.45 3.99-.6 1.35-.17 2.73-.33 4.15-.51.71-.09 1.43-.18 2.16-.28.74-.07 1.48-.15 2.25-.22 1.52-.16 3.11-.33 4.78-.51 1.67-.19 3.41-.31 5.26-.5l-1.92-.02c5.3-.5 16.85-.91 15.96-.68.54-.04 1.74-.2 3.83-.15l.16.12c4.36-.09 8.72-.16 13.09-.1 5.07.15 4.67.3 4.85.41.18.13.95.24 8.34.57 5.5.2 15.67.51 13.61.3-2.22-.14-5.66-.41-5.83-.54l5.03.23c.93-.31 4.83-.47-7.51-1.43-2.88-.06-5.75-.16-8.63-.18l-2.77-.28c2.42.09 4.84.17 7.25.3-4.1-.39-6.73-.29-9.65-.32-.69-.13-1.9-.22-3.61-.29-2.83.05-5.66.09-8.48.22-1.03-.15 3.81-.27-1.88-.37-3.97.15 3.81.34-2.76.41-4.13-.09-2.93-.25-7.78-.02-.68-.08.34-.16 2.26-.24-2.16.07-5.01.22-7.61.36-2.59.11-4.92.34-6.03.51-1.08.03-2.53.11-4.08.21-1.56.13-3.22.33-4.74.48-1.52.16-2.89.29-3.86.39-.97.11-1.53.14-1.44.04-.67.14-2.55.47-4.74.85-1.1.17-2.27.44-3.41.66-1.14.22-2.26.45-3.23.64 1.76-.43 1.73-.48.72-.33-1.02.16-3.01.49-5.15 1.02-1.07.24-2.18.49-3.23.73-1.05.24-2.05.44-2.86.67-1.64.43-2.64.65-2.21.41-.64.23-1.4.48-2.28.77-.44.14-.9.28-1.39.43-.49.14-1 .31-1.52.51-2.09.76-4.52 1.56-7.05 2.49-1.25.51-2.53 1.02-3.81 1.54l-1.92.78-.96.39c-.32.14-.62.29-.93.44-2.47 1.2-4.89 2.31-7 3.44.45-.29 1.38-.79 2.15-1.13-2.45 1.1-3.96 1.99-5.3 2.68-.65.37-1.25.72-1.88 1.08-.62.39-1.25.79-1.99 1.25-.19.34-2.03 1.7-4.06 3.59-2.05 1.86-4.2 4.34-5.43 6.27-.49.67-.83 1.12-1.05 1.4-.21.28-.29.39-.31.37-.01-.03.04-.2.17-.43.14-.23.32-.55.51-.89.21-.34.42-.73.65-1.07.23-.34.45-.66.62-.92.34-.51.47-.77.08-.4.1-.03-.29.55-.9 1.4-.28.45-.6.97-.96 1.52-.36.54-.64 1.18-.97 1.77-1.23 2.42-1.81 4.82-1.37 3.75-.88 2.43-.99 3.57-1.12 4.36-.07.4-.12.72-.19 1.1-.04.39-.13.85-.18 1.52.2.46.21 1.67.43 3.28.22 1.61.66 3.62 1.46 5.58.56 1.76.93 2.73 1.16 3.35.22.62.3.86.4 1.13.09.27.21.55.54 1.22.33.66.85 1.72 1.88 3.44.9 1.69.43 1-.26-.12-.72-1.1-1.55-2.7-1.55-2.7l.05.09Zm172.06 52.33c-1.63.01-3.02.02-3.91.02.81 0 1.94-.01 3.91-.02Zm15.89-.35c-1.94.06-4.35.14-6.9.22-.56-.06.04-.16 1.64-.2-.87.08 2.88 0 5.26-.01Zm-33.59-1.33c2.51.01 3.35.07 3.7.12-1.19-.01-2.57-.03-4.4-.05-.07 0-.22.01-.3.02.24-.03.51-.07 1-.09ZM583.9 276.77c-.79-.03-.36.12 1.82.38h1.56l-3.38-.38Zm14.51 2.48c2.54.39 5.49.78 3.89.28-2.55-.27-3.13-.52-5.87-.74-2.17-.32-3.76-.66-3.39-.68-.39-.03-1.23-.18-2.11-.32-.89-.12-1.84-.22-2.43-.24.7.13 1.45.25 2.24.37.79.14 1.61.28 2.46.43 1.7.29 3.54.5 5.4.8.79.2 0 .1-.18.1Zm26.15 115.57c.43-.14.88-.26 1.31-.42-.35.13-.81.25-1.31.42Zm-130.2 19.59c1.01 0 1.43-.03 1.48-.05-.93.01-1.7.03-1.48.05Zm-22.57-.39c.49.01.89.03 1.33.04-.51-.03-1.02-.05-1.33-.04Zm152.77-19.2-3.38 1.04c-.22.14 1.73-.51 3.38-1.04Zm2.53-108.74c-.7-.23-1.3-.41-1.84-.56.58.19 1.14.37 1.72.56h.12Zm48.5 81.47.8-.7c.22-.22.42-.44.61-.65l-1.42 1.35Zm17.9-38.02c.3.93.56 1.22.71 1.58-.2-.54-.42-1.23-.75-2.04-.03 0-.03.14.03.46Zm-57.19-39.39-1.19-.42c.31.11.83.29 1.19.42Zm12.45 94.53c-.08 0-.23.06-.39.12 0 .02.16-.03.39-.12Zm-76.16-136.9s.01.02 0 .03c.26 0 .35-.01 0-.03Zm51.76 4.11-.72-.04c-.08.03-.16.05-.16.09l.88-.05ZM430.51 411.97c.08 0 .11 0 .18.01 1.08.05.47.01-.18-.01ZM57.32 348.38c1.98.83.32.28-1.06-.23-1.39-.5-2.53-.9.44.39-.55-.24 5.59 1.81.62-.16Zm570.86-61.91c.58.19 1.16.39 1.75.58-.79-.26-1.33-.45-1.75-.58Z" class="st0"/><path d="M497.95 244.79c-5.81-.16-2.73.15-3.97.25-6.94-.06-3.2-.22-5.56-.37-4.33 0-7.65.17-10.89.12-.24-.04-.87-.06-.13-.1-4.58.13-13.59-.18-18.93.01-.4-.02-.6-.04-.7-.05.86.12 1 .23.82.31-2.6 0-4.84.15-5.81 0 1.6 0 1.73-.05 2.48-.1l-2.73.07c-2.46-.21 3.73-.08 3.73-.24-5.32.07-11.52.26-15.6.2-.85-.21 9.54-.08 4.09-.26l6.31.07c-4.82-.33 3.83.02-.6-.33-8.3-.05-9.29.12-17.57.06-1.86.12.62.17-1.25.29-5.89.09-8.2.03-10.13-.07-1.93-.09-3.47-.19-7.8.01-2.24.18-3.1.45-9.27.4l2.1-.27c-8.04.09-4.59.41-13.01.37 1.5-.12 6.31-.17 5.1-.18-5.46-.1-3.85.18-8.05.3l-.87-.18c-8.55.31-17.98.66-27.45 1 .52-.07 2.14-.19-.07-.19-5.97.26-12.35.56-18.67.77-6.32.24-12.6.39-18.36.64l-4.39.43c-1.02.05-1.9.03-.8-.07-4.49.18-.22.13-2.38.32-2.55.16-3.38.08-1.76-.06-7.91.61-22.54 1.53-30.89 2l1.62-.17c-6.5.38-7.3.88-13.33 1.13l1.15-.12-10.75.72c-3.61.26-7.21.59-10.7.87-6.99.58-13.57 1.1-18.95 1.41-2.03.38-13.93 1.17-14.8 1.62-8.04.6-5.75.31-17.07 1.29-3.02.29-4.48.63-8.2 1.1l-.11-.18-5.04.76-2.72.07-3.49.44c1.4-.14 2.97-.24 2.76-.16-2.72.35-6.06.68-8.72.92-1.33.11-2.51.21-3.35.28-.85.06-1.36.09-1.4.07-4.3.54-8.6 1.04-12.89 1.66.28-.12 2.43-.41 4.14-.67-6.86 1.06-1.27-.04-7.56.92.85-.06-.44.17-.58.22-3.16.28-10.32 1.17-15.61 1.88l1-.26c-9.58 1.1-20.14 2.76-30.86 4.23 3.85-.47 3-.13-.14.33l-1.29-.03c-2.01.41 3.29-.38-.85.35-4 .54-2.72.15-.43-.24l-4.86.75c-.29-.02.84-.21 1.13-.33-1.98.39-8.43.98-11.27 1.65l-.28-.02c-10.7 1.63-15.53 2.52-24.21 4.16-.14.22-3.54.82-6.08 1.51-6.35 1.29-13.4 2.79-20.91 5.02-5.24 1.67-1.5.59-3.83 1.42-.22-.01-2.18.58-3.62 1.02-1.42.46-2.32.75-.43.03-4.44 1.52-7.27 2.59-10.29 4-1.66.77-3.29 1.62-4.87 2.54-1.78 1.07-3.84 2.37-6.1 4.39.26-.2.52-.42.76-.61.25-.18.48-.35.66-.47.36-.25.51-.34.22-.09-.87.66-1.79 1.48-2.5 2.09-.67.65-1.14 1.06-1.06.93l.39-.43c-.6.6-1.13 1.3-1.69 1.98-.28.35-.5.74-.76 1.1l-.37.56c-.12.2-.22.4-.33.6-.92 1.59-1.5 3.41-1.78 5.29-.27 1.89-.14 3.85.31 5.72s1.23 3.64 2.16 5.28c1.85 3.29 4.3 6.04 6.73 8.38 2.43 2.36 4.95 4.16 7.08 5.76l-.48-.36c.72.58 1.49 1.08 2.25 1.61l2.28 1.56c.75.54 1.53 1.02 2.32 1.49l2.35 1.44c.53.35.89.58 1.12.72.23.14.33.2.33.21s-.09-.03-.24-.11c-.15-.07-.33-.19-.54-.3-.8-.47-1.75-1.01-.19.04 1.28.77 2.53 1.41 3.71 2.08.59.33 1.16.65 1.72.97.57.3 1.13.59 1.68.87 1.1.57 2.15 1.12 3.18 1.65 1.03.53 2.05 1 3.05 1.48 1 .47 1.98.97 2.97 1.42 1 .44 2 .87 3.01 1.32 2.01.91 4.13 1.7 6.41 2.58 1.71.82 4.17 1.75 7 2.82 1.44.49 2.96 1.03 4.55 1.58 1.59.54 3.26 1.04 4.93 1.59 6.73 2.09 13.84 4.02 18.73 5.47l-.54-.26c2.57.58 3.07.87 4.94 1.39-.24-.15-2.74-.82-1.14-.46 21.64 5.44 44.69 11.12 67.04 15.99 8.18 1.75 4.76.44 15.04 2.82l-2.97-.39c16.59 3.15 33.87 6.71 50.19 9.35-.98-.12-1.02-.06-2.61-.35 1.71.39 4.88.93 7.65 1.38 1.38.21 2.66.41 3.6.55.93.13 1.54.2 1.55.17 2.53.44.57.2 2.13.53 3.44.67 8.7 1.25 10.51 1.69.31.07-.98-.11-1.61-.2 2.26.3 10.49 1.7 8.37 1.19 6.12 1.04 11.74 1.73 16.62 2.55 3.22.28 10.49 1.61 11.55 1.48-.48.22 10.74 1.72 14.64 2.09-1.31-.09 3.37.54 1.83.45 4.44.58 8.51 1.04 7.76.8 8.14 1.38 16.48 1.76 21.04 2.72 13.22 1.38 25.47 2.57 37.38 3.66-.46.25-13.15-1.29-12.67-.96 11.3 1.04 17.83 1.44 29.03 2.53 2.9.3-1.66-.03-2.64-.07 11.3.91 21.83 1.94 31.9 2.55-.01.01-.29 0-.7-.01-.41-.02-.93-.05-1.44-.07 1.98.14 4.61.38 4.39.24l-1.94-.11c-3.15-.42 7.9.2 8.26.13-1.69.05.79.26 3.02.46 2.24.2 4.22.36 1.53.42 1.31.06 2.95.1 2.66 0 1.94.15 2.55.24.58.21 7.11.39 4.59.09 11.03.5-.03.06-1.33 0-2 .03 3.26.1 6.55.11 11.99.45-.33.02.3.1-1.32.01 2.34.12 4.5.2 6.6.28 2.09.04 4.12.08 6.17.13 4.1.11 8.32.22 13.45.35-3.03.21 3.49.16 4.03.39l5.53.03-2.21-.16c2.42.07 4.7 0 6.89-.03 2.19-.03 4.3-.06 6.38-.03l-3.6.1c3.02-.03 6.04 0 9.07-.09-1.71.03-3.42-.04-5.13-.05 2.45-.06 2.32-.14 2.38-.19.06-.07.32-.04 3.54-.09-1.31.05 4.84-.12 7.36-.04h-.01c2.39-.15 4.85-.22 8.43-.37.93.03-.74.29-.13.31 1.18-.16 4-.31 6.91-.47 1.46-.08 2.93-.17 4.22-.24s2.41-.22 3.15-.33c-.99.13-1.04.25-.7.25l1.96-.31c2.24-.13 2.57-.13 2.21 0 6.73-.5-2.16-.12 5.83-.62-.62.06-.33.06-1.63.19 2-.16 3.98-.25 5.91-.49 1.94-.22 3.84-.45 5.73-.66 3.77-.46 7.48-.81 11.13-1.36 1.1-.04-.5.2-2.06.44-1.55.26-3.08.41-1.83.37 2.63-.37 5.32-.8 8.01-1.22 1.35-.21 2.7-.42 4.05-.64 1.35-.22 2.71-.41 4.05-.69 2.69-.52 5.36-1.04 8-1.55 1.32-.25 2.63-.49 3.92-.74 1.3-.22 2.56-.56 3.83-.83l-1.88.4c1.32-.64 7.52-1.55 12.56-2.86-1.24.3-1.58.55-1.26.43 1.73-.35 3.45-.86 5.23-1.35 1.78-.51 3.63-1.03 5.58-1.59.98-.28 1.98-.57 3.01-.87.51-.15 1.04-.3 1.58-.45.54-.16 1.06-.36 1.61-.54 2.18-.75 4.52-1.54 7.05-2.4l-1.23.49c.99-.31 2.14-.68 3.37-1.06.62-.2 1.25-.41 1.9-.62.65-.2 1.31-.42 1.95-.68 2.6-1 5.24-2 7.34-2.8 1.21-.56 3.62-1.47 2.11-1.02 1.64-.57 3.26-1.13 4.82-1.8.79-.33 1.56-.65 2.34-.98.77-.35 1.52-.69 2.28-1.03.75-.35 1.5-.7 2.25-1.04.74-.37 1.47-.73 2.2-1.1 1.47-.71 2.89-1.48 4.3-2.26 5.64-3.08 10.9-6.4 15.97-9.9-1.19.87-2.8 2.12-1.85 1.44 1.4-1.05 2.85-2.05 4.19-3.18l2.05-1.65 1.96-1.75c-.36.22-.63.43-1.03.76s-.91.79-1.82 1.42l.95-.85c.37-.35.79-.74 1.24-1.16.9-.83 1.95-1.75 2.85-2.68-.45.47-.9.93-1.35 1.4-.12.14.06.02.4-.24.65-.56 1.9-1.71 2.66-2.4-.28.21.19-.31.03-.22 1.98-1.9 2.05-2.15 2.32-2.55.13-.2.3-.46.76-1 .43-.56 1.12-1.44 2.32-2.88l-.18.35c1.66-2.26 3.01-4.46 4.48-7.08.77-1-1.42 2.61-1.4 2.86.53-.92 1.04-1.85 1.54-2.76l.37-.68c.12-.23.21-.47.32-.71.21-.47.41-.94.62-1.41.87-1.85 1.54-3.72 2.17-5.53-.22.87-.58 1.92-.97 2.95-.38 1.04-.87 2.01-1.23 2.84 1.01-1.84 1.47-2.92 1.84-3.89.35-.98.65-1.84 1.04-3.35l-.08.3c.63-2.33.96-4.77.85-7.21 0 .62.01 1.25-.03 1.86-.12-2.69-.56-5.43-1.83-8.12-1.25-2.68-3.29-5.21-5.97-7.56 1.31 1.14 1.96 1.83 2.28 2.13.32.31.29.26.13.05-.32-.41-1.22-1.38-.98-1.25-1.23-1.38-3.32-3.22-2.68-2.74-2.66-2.11-4.34-3.64-8.28-6.33-.12-.2-2.96-2.07-2.24-1.77-3.64-2.47.79.68.45.53-5.61-3.76-13.13-9.05-21.95-13.22-1.9-.9-3.41-1.61-4.71-2.23-1.33-.58-2.46-1.04-3.57-1.5-1.12-.45-2.19-.94-3.47-1.43-1.27-.5-2.72-1.06-4.53-1.77-2.39-1.09 2.07.62 2.07.62-.98-.42-1.88-.81-2.76-1.19-.89-.37-1.75-.68-2.61-1-.86-.31-1.71-.63-2.57-.95-.87-.33-1.76-.64-2.72-.93.79.21 0-.1-1.12-.55-1.52-.5-2.05-.62-2.69-.79-.64-.18-1.4-.41-3.41-1.04.71.16 1.65.27 3.13.72-1.8-.58-3.62-1.03-5.45-1.55-1.82-.53-3.68-.96-5.58-1.43-.98-.37 2.32.44 3.67.74-2.13-.54-4.89-1.26-7.3-1.82-2.42-.51-4.46-.92-5.14-.99l2.74.68c-1.56-.35-.77-.33.39-.09.93.18 1.72.35 2.39.5.67.17 1.21.33 1.65.47.87.27 1.31.45 1.41.51l-2.7-.67c1.33.55 4.05 1.21 7.09 2 1.51.42 3.1.86 4.66 1.29 1.56.41 3.04.95 4.37 1.38l-2.3-.5 5.51 1.63c1.12.5 1.86.9-.75 0 3.73 1.48 3.36 1.14 6.54 2.48.35.16.18.1-.15 0 1.23.44 2.44.94 3.66 1.41-.73-.24.54.42-1.68-.54 1.61.7 3.08 1.32 4.4 1.86 1.31.57 2.49 1.08 3.54 1.54 1.05.46 1.97.86 2.78 1.22.8.39 1.48.75 2.05 1.08l-.54-.25c2.19 1.06 3.35 1.61 3.95 1.88s.65.26.64.22c-.03-.09-.33-.34 2.95 1.31 1.37.93 2.76 1.82 4.08 2.8l.92.33c.87.51 2.57 1.54 2.21 1.42 3.29 1.8-.5-.4 1.43.61 4.03 2.69 11.2 7.31 11.85 8.28 1.48.93-3.64-2.88.56.16.96 1.17 4.9 3.45 8.04 6.59-1.1-.81-4.23-3.56-.98-.58 1.08.77 2.66 2.26 4.07 4.03s2.6 3.86 3.24 5.57c.05.03.31.49.55 1.31.26.81.52 1.98.62 3.36.11 1.38.05 2.95-.17 4.55-.22 1.6-.62 3.22-1.08 4.71 0-.1-.2.55-.63 1.64-.4 1.1-1.15 2.59-1.96 4.25-.37.85-.91 1.67-1.4 2.53-.51.84-.97 1.73-1.55 2.51l-1.61 2.3c-.51.72-1.06 1.34-1.51 1.91l.07-.16c-.26.5-1.29 1.96-2.78 3.57-.37.41-.75.83-1.13 1.27s-.83.84-1.25 1.27c-.86.83-1.67 1.71-2.49 2.43.01-.11.17-.29.52-.67.34-.39.88-.96 1.7-1.81-.98.96-1.93 1.93-2.97 2.81-.34.35-.74.74-1.31 1.27-.56.54-1.31 1.17-2.35 2l.7-.77c-4.21 3.45-8.67 6.79-14.81 10.22-.14.16 1.14-.41 1.63-.61.49-.19.26.13-2.97 2-.28.06-.6.07 1.08-.92-.56.32-1.94 1.2-3.1 1.77.85-.5 1.69-1.06 2.53-1.58-2.82 1.52-1.39.95-3.66 2.13-.01-.13-1.72.81-1.44.55.58-.31 2-1 2.85-1.5-1.29.65-2.71 1.38-3.94 2-1.25.58-2.31 1.06-2.85 1.27.25-.05.07.16-1.83 1.08-4.97 2.28-1.75.67-4.69 1.9-.59.3-1.69.78-2.66 1.2-.96.44-1.79.75-1.79.86-1.5.58-1.8.6-2.4.78-2.61 1.1-12.33 4.79-9.29 3.82l.68-.25c-.13.05-.28.12-.43.18h.02-.02c-4.36 1.61-8.97 3.03-13.55 4.52-4.63 1.31-9.29 2.49-13.72 3.77v-.06c-2.66.72-5.65 1.35-8.44 2.03-2.79.64-5.38 1.31-7.3 1.74-1.6.3-3.8.59-3.13.39-4.13.81-4.58.98-10.57 1.96 4.15-.85-1.45.18 4.25-.85-1.35.23-2.43.42-3.39.58-.96.17-1.81.25-2.66.38-1.71.24-3.46.51-6.35 1.02 1.95-.45-4.09.43-6.67.79 1.27-.09 2.53-.28 3.81-.41-2.88.48-5.43.71-8.01.99l1.37-.36c-2.78.24-5.43.54-7.95.83-1.27.14-2.5.33-3.71.44-1.22.12-2.4.23-3.58.35-2.34.22-4.61.44-6.81.62-1.1.09-2.19.16-3.27.22-1.08.05-2.15.05-3.22.06-1.47.14.05.09 1.61.05 1.56-.03 3.15-.16 1.84.04-5.14.26-10.51.21-12.12.3-3.52.14-5.16.22-6.84.35-1.68.12-3.41.24-7.09.3.94.05 1.84.22-3.67.43-5.15 0-6.33-.29-3.08-.35 1.23 0 1.83.01 1.78.04 1.67-.02 3.85-.14 1.81-.16l-.66.09c-2.55-.07-9.64-.05-7.97-.17-3.89.07-1.67.12 1.22.16-3.3-.05-5.88-.04-8.48-.04-2.6-.05-5.23-.09-8.63-.18 1.08.06 2.07.16 1 .14-9.96-.28-4.4.09-11.15-.11-3.83-.25 1.38-.22-5.42-.37-4.15-.22-.87-.22.78-.22-6.2-.05-11.56-.6-15.09-.8l3.26.11c-1.95-.07-3.55-.15-5.17-.23l1.86.24c-1.91-.12-3.54-.21-3.5-.26-1.98 0 1.5.33-2.42.25-2.55-.24-7.77-.41-8.64-.66 8.02.58-.87-.25 5.91.15-1.31-.06-2.91-.16-4.82-.31-.28-.04.27-.02.8 0-7.66-.68-3.54.03-11.49-.55 1.02-.03-1.83-.35-3.13-.41 3.2.24 1.52.3-1.43.16-5.09-.47-5.55-.34-8.21-.56l3.04.28c-1.04.04-3.59-.18-7.14-.43-.3-.11 3.23.2 1.96.06-3.96-.12-8.89-.92-14.4-1.26-2.54-.3-.23-.23-2.46-.47-6.17-.4-6.66-.73-13.13-1.21 1.85.32 2.18.31-2.39.03l10.65.87-6.85-.41c3.21.26 6.78.56 8.7.72-3.26-.17-2.93-.18-1.4.08-4.38-.61-8.72-.66-13.78-1.29l.19-.35c-7.61-.89-13.57-1.13-23.46-2.27l3.18.4c-1.34 0-6.12-.62-9.33-.92.31-.09-1.69-.35-3.05-.58.16.12-7.24-.83-8.16-.69l-4.4-.67c-7.97-1.01-9.15-.75-16.81-1.74 2.32.16-1.15-.36 4 .18-1.28-.16-2.49-.31-3.39-.42s-1.49-.17-1.51-.13c-1.48-.27-7.12-.74-9.46-1.18-1.08-.09-1.46-.01-4.32-.41-.31-.07.02-.06.02-.06-.02.06-4.5-.52-2.02-.05-7.82-1.44-22-3.07-28.79-4.44-2.78-.41-5.85-.87-8.86-1.31-3-.47-5.94-.93-8.47-1.33.33.01.03-.05.98.11-6.94-1.24-4.34-.36-12.23-1.8-4.01-.87 4.22.6 1.71.1-1.03-.57-9.56-1.57-14.83-2.75l1.29.21c-4.04-.86-9.94-1.62-16.56-2.89 0 0 .33.03.05-.05-4.57-.64-13.16-2.21-19.54-3.43 2.01.24 2.91.49 1.73.09-2.86-.54.79.42-4.92-.66-1.84-.46-5.92-1.37-6.43-1.65l5.36 1.08c-2.7-.78-6.95-1.4-9.76-2.03l.38-.02c-8.22-1.69-8.39-1.46-17.2-3.39l.89.27c-4.87-.8-4.01-1.02-8.85-1.9l-1.4-.56c-3.18-.65-11.16-2.27-16.85-3.57 3.26.59 9.93 2.01 14.07 2.84-3.14-.72-10.68-2.41-12.34-2.69 1.27.27 2.88.6 4.12.91-3.89-.71-8.99-1.78-15.23-3.3 1.21-.18-16.25-4.05-20.66-5.6-11.03-2.68-21.77-5.82-34.25-10.14 2.15.93 1.24.62-.13.16-1.38-.47-3.18-1.16-2.87-.83-2.9-1.04-4-1.46-4.24-1.6l-4.29-1.84c-1.42-.63-2.82-1.31-4.23-1.96-1.98-.98 2.72 1.09 2.49.9-6.15-2.72-2.53-1.25-6.51-3.23.77.49-2.22-.77-5.57-2.63 1.56.88 3.12 1.79 4.73 2.59-2.16-.93-3.62-1.77-4.82-2.39-1.19-.64-2.08-1.13-2.93-1.69-1.72-1.1-3.5-2.11-7.51-4.61l2.58 1.5c-1.02-.64-2.5-1.54-4.15-2.63-.81-.57-1.67-1.17-2.55-1.79-.89-.62-1.81-1.25-2.67-1.95-1.75-1.38-3.54-2.7-5.01-3.99-1.49-1.27-2.7-2.45-3.57-3.25-.54-.66-1.21-1.56.22-.01-.96-1.07-1.93-2.17-2.8-3.37-.46-.58-.85-1.23-1.27-1.85-.37-.65-.79-1.29-1.1-1.97-.36-.66-.62-1.37-.91-2.07-.22-.72-.49-1.42-.62-2.16-.19-.72-.23-1.47-.32-2.21 0-.74-.03-1.48.09-2.21.3-2.94 1.71-5.58 3.43-7.67 1.73-2.1 3.75-3.7 5.6-4.92l-.66.57c1.73-1.25 3.01-2.22 5.43-3.41-.11.09-.73.47.16.03.25-.14.69-.37 1.25-.68.56-.29 1.25-.62 1.99-.99 1.5-.69 3.21-1.42 4.57-1.9-.76.31-1.49.66-2.24.99 2.61-1.05 4.99-1.84 7.17-2.61 1.08-.39 2.14-.72 3.16-1.08 1.02-.35 2-.68 2.99-1 3.92-1.3 7.65-2.4 12.27-3.6.02.14 2.2-.33 4.94-.87 2.73-.57 6.01-1.23 8.2-1.65l-.14.07c12.97-2.55 22.08-4.18 34.19-6.08 3.79-.39 10.18-1.24 17.14-2.19 3.48-.47 7.11-.98 10.61-1.46 1.75-.24 3.48-.47 5.15-.69 1.67-.19 3.29-.38 4.8-.56-1.86.18.28-.25 2.43-.55 2.86-.3 7.85-1.17 7.43-.87l-1.02.12c2.18-.03 8.03-.82 12.6-1.39l.72-.42c6-.56 13.85-1.4 21.01-2.27 7.16-.85 13.64-1.63 16.93-1.77 2.89-.37 6.48-.71 9.33-1.08l-.14.19c8.03-.73 12.03-1.1 21.94-2.11l-2.01.32c5.59-.55 7.02-1.13 12.19-1.59l1.58.13c4.88-.38 9.8-.76 14.71-1.14l7.34-.6c2.44-.21 4.86-.39 7.27-.62-.16.05-.44.14-2.02.26 4.61-.31 17.81-1.06 16.12-1.3.07.12 2.59-.05 5.75-.31 3.16-.25 6.98-.62 9.62-.79l-.81.22c4.45-.47 4.59-.54 10.82-.95 1.48-.06 1.3.07-.66.13 4.92-.18 3.83-.38 9.79-.62l-2.21.24c5.07-.27 4.66-.3 7.44-.59 1.59-.12 3.99-.25 6.09-.32 2.1-.05 3.89-.05 4.27 0 .68-.12 3.45-.37 6.43-.45.41.04-.68.12-1.23.16 8.47-.24 12.59-.73 18.42-.81.12.05.5.07.99.06-6.73.28-12.15.49-11.64.46 0 .16 5.45-.04 1.13.36 4.36-.28 11.81-.91 17.11-.98.26 0 .51.01.7.03l-.55.03c1.23-.02 2.32-.07 3.35-.12 1.69-.02 2.77-.03 4.39-.07.63.12 6.24-.11 8.95-.18-.23-.17 3.32-.24 0-.29.43 0-.51.03-2.32.09-.41.02-.89.04-1.16.05.05 0 .12-.01.18-.02-1.78.05-4.1.12-6.74.2 2.14-.15 4.38-.28 7.38-.28l3.78-.39c3.72.14 10.87.07 11.87.19 8.28-.22 19.51-.35 24.71-.75 2.36-.07 2.71.05 3.59.09-1.36.05-2.97.07-3.71.13 2.35-.07 5.84-.14 8.88-.2 3.04-.03 5.63-.07 6.19-.19 5.93.09-3.33.21 4.82.17l-1.1.07c8.02.18 14.54.02 21.28-.12 6.74-.09 13.7-.09 22.59.25-1.23-.05-1.85-.07-2.1-.11 5.07.09 10.21.18 15.4.28 5.18.12 10.39.25 15.6.37l15.55.39c5.14.21 10.23.45 15.23.74 5.68.29 6.3.18 9.77.2l1.23.24 5.94.02c8.41.26 14.53 1.23 25.18 1.5l-1.37-.2c3.82.23 12.11.57 11.46.7.39 0 1.26-.05 2.75.12l.11.11 9.39.47c7.27.56-1.17.31 9.44 1.05 3.95.23 11.25.48 9.77.31-1.59-.12-4.06-.34-4.17-.44l3.61.2c.68-.24 3.47-.35-5.37-1.15l-6.18-.24-1.98-.27 5.2.35c-2.94-.33-4.82-.34-6.91-.41-.49-.11-1.35-.22-2.57-.33l-6.08-.14c-.72-.16 2.73-.04-1.33-.38-2.85-.07 2.71.44-2 .2-2.95-.33-2.08-.39-5.55-.49-.48-.09.26-.12 1.63-.05-3.1-.1-8.18-.41-9.77-.35-3.07-.33-10.42-.52-10.11-.78-.98.01-5.45-.08-8.28-.22 2.6-.02-.05-.17-3.18-.35-3.13-.2-6.74-.31-6.05-.47-3.85.14-13.87-.43-20.67-.54.38 0 1.13-.03 1.73.01-3.83-.18-4.93-.31-7.39-.47-.25.12-1.86.11-3.82.12-1.96.01-4.25 0-5.86.03-4.68-.36 2.86-.21 1.4-.47.23.2-8.16-.02-6.56.18-3.58-.24-3.09-.15-4.93-.4-.64.28-3.34-.04-6.32.07-5.19-.28-1.33-.32-7.04-.38-2.71-.16 2.36-.14 2.36-.14l-.05-.03Zm-135.68 1.36c1.17-.04 2.16-.07 2.8-.09l-2.8.09Zm-11.39.46c1.39-.05 3.12-.13 4.94-.2.4.04-.03.12-1.17.17.62-.07-2.07.01-3.77.03Zm24.14.39c-1.8.07-2.4.06-2.66.03.85-.03 1.85-.07 3.16-.11.05 0 .16-.02.21-.03-.17.04-.37.07-.71.11Z" class="st0"/><path d="M378.25 246.68c.26-.01.41-.02.75-.03h-1.08c-.22.03-.44.05-.64.07l.97-.03ZM626.1 394.32l-.22.08c.19-.07.36-.12.48-.16q-.16.05-.25.07ZM193.82 257.57l.02.04.98-.15-1 .11Zm486.73 106.41c.09-.07.28-.22.62-.55-.03.03-.3.26-.62.55Zm14.01-23.08c.32-1.25.56-2.53.7-3.83-.18 1.68-.47 2.88-.7 3.83Zm-5.27-19.55c-.21-.17-.28-.21-.34-.24l.03.03.31.22Zm-281.7 90.53c-.28-.02-.56-.04-.81-.05-1.88-.12-.6-.03.81.05Zm98.64 2.96c-1.05.05-2.08.1-3.17.16 1.75-.03 3.12-.06 3.17-.16Zm-208.29-14.11h.01c-.24-.03-.44-.06-.68-.09l.66.09Zm200.52 14.38c1.75 0 3.22-.05 4.59-.11-1.44.02-3.14.05-4.59.11Zm110.7-134.14-.98-.23s-.05.01-.12 0l1.1.23Zm-1.1-.23-1.1-.23c.5.12.93.21 1.1.23Zm-3.4-.71 2.3.48c-.79-.18-1.77-.41-2.3-.48Zm30.91 9.15.32.05c-.17-.05-.28-.07-.32-.05Zm7.79 3.15c-1.85-.77-4.59-2.08-7.21-3.05l-.26-.05c.64.17 2.06.79 3.54 1.45 1.48.66 3.03 1.33 3.94 1.65Zm30.27 17.56c-1.89-1.38-3.89-2.6-5.84-3.89 1 .72 2.3 1.67-.39-.04 3.67 2.47 3.31 2.19 2.99 1.92-.16-.14-.3-.27.07-.06.37.22 1.29.74 3.16 2.07Zm16.62 13.85c-2.46-2.8-.03.09-.2-.03.77.89 1.19 1.49 1.26 1.54.05.07-.21-.41-1.06-1.51Zm-111.61 83.11.35-.22c-2.85.55-.01.07-.35.22Zm-29.65 5.26 2.83-.22 1.32-.29-4.15.51Zm-17.81.52 1.27-.12-4.83.43 3.56-.31ZM267.8 394.96l.84.33c1.95.26 2.39.1-.84-.33Zm-112.34-20.31c-1.2-.35-4.32-1.1-6.27-1.44 2.5.58 4.99 1.19 6.27 1.44Zm8.43-112.18-2.27.35c1.43-.2 2.86-.39 4.29-.56l-2.02.21Zm59.04 221.91c-1.06.3-.43.3 2.56-.28l2.08-.66-4.64.94Zm20.26-3.14c3.52-.64 7.58-1.46 5.25-1.36-3.47.76-4.34.78-8.07 1.63-1.51.21-2.81.48-3.69.6-.87.13-1.31.16-1.07.06-1.05.26-4.67.82-6.25 1.28 1.97-.26 4.19-.63 6.55-1.07 1.19-.21 2.4-.47 3.65-.69 1.25-.21 2.53-.43 3.83-.65 1.12-.11.05.12-.2.2Zm228.91 70.37c.6-.22 1.19-.46 1.77-.7-.49.19-1.09.43-1.77.7Zm-182.07 15.88c1.39.17 1.98.22 2.05.2-1.29-.15-2.36-.27-2.05-.2Zm-31.02-5.08c.66.14 1.22.25 1.82.38-.69-.16-1.38-.31-1.82-.38Zm213.09-10.8c-1.52.6-3.07 1.14-4.62 1.67-.3.2 2.4-.77 4.62-1.67Zm-188.14-75.28c-1.03.08-1.89.16-2.67.24.85-.06 1.67-.13 2.51-.19.05-.01.08-.03.16-.05Zm171.67 28.45-1.4-.54c-.42-.13-.82-.24-1.2-.35l2.59.89Zm-59.59-17.94c1.38.3 1.9.19 2.45.21-.8-.08-1.83-.26-3.04-.49-.03.03.14.12.59.28Zm-98.06-10.13-1.75.07c.45-.02 1.23-.05 1.75-.07Zm194.83 49.82c.01.1.03.32.08.54.02 0 0-.22-.08-.54Zm-221.2-66.47s.03.02 0 .04c.36-.07.47-.11 0-.04Zm72.33.31-1-.05c-.11.03-.22.07-.22.11l1.23-.07ZM203.4 547.92c.11.03.14.05.24.08 1.46.42.63.18-.24-.08Zm178.13 12.72c5.99-.09-9.71.72-.7.51-.84-.05 8.16-.73.7-.51Zm-95.95-84.39c.84-.05 1.7-.12 2.55-.16-1.17.05-1.95.12-2.55.16Zm95.25 84.9.93-.02c-.39 0-.6.01-.93.02Zm-146.58-88.86c-.27.05-.79.18-1.31.32.05 0 .35-.06 1.31-.32Zm-59.09 59.06c-.43-.67-.88-1.33-1.26-2.04.44.84.89 1.47 1.26 2.04Zm108.82-70.95c1.32-.14 1.77-.17 3.57-.41-.17.01-.33.03-.55.04-.65.11-1.51.22-3.02.37Zm53.22-2.44c-.28-.03-.66-.06-.98-.09-.53-.02-1.14-.04-1.69-.06l2.67.16Zm-91.69 99.67c-1.06-.54-1.71-.87-2.19-1.2.34.26-1.27-.48-1.9-.75-.31-.14-.38-.16.18.12.56.26 1.7.9 3.92 1.83ZM284 476.45c.31-.07.77-.14 1.59-.2-.62.04-1.2.09-1.77.13-.16.04-.18.07.2.07Zm1.91-18.03 8.47-.99c-2.36.28-5.45.64-8.47.99Zm110.05 19.22 1.94.21c-.75-.09-1.44-.18-1.94-.21Zm-76.33-21.67c1.52.05 3.14.13 4.8.16.35-.01.76-.03.99-.05-1.93-.03-3.86-.1-5.79-.11Zm-76.34 100.45h.01-.01ZM56.7 348.53l.62.26c-.25-.11-.4-.17-.62-.26Zm278.92 55.14c.19.05.56.12.96.18-.03-.02-.24-.07-.96-.18Zm70.63 6.93-1.75-.16c.69.07 1.25.12 1.75.16Zm-107.24-11.12c-.95-.14-1.27-.2-2.56-.35.12.02.24.05.39.07.47.04 1.1.11 2.17.28Zm-37.98-5.38.69.14c.38.05.81.12 1.21.18l-1.9-.32Zm194.98-149.61c.84.05 1.36.1 1.77.16-.59-.12 5.05-.17-1.77-.16Zm171.06 41.68c.23.03.55.12 1.1.29-.42-.14-.82-.27-1.22-.4-.12-.01-.14 0 .11.11ZM297.28 400.64l-6.04-.83c1.69.23 3.89.54 6.04.83ZM181.2 259.06l1.39-.18c-.54.05-1.03.12-1.39.18Zm92.12 138.25c-1.07-.22-2.21-.41-3.38-.62-.25-.03-.54-.05-.7-.06l4.09.68Zm184.47-152.67h-.01.01Z" class="st0"/><path d="M102.99 255.8c-4.88.49-9.93 1.14-14.98 1.64-11.85 1.48-21.61-1.31-29.44-8.03-1.04-.82-.87-1.8.52-2.62 4.18-2.46 8.53-4.42 13.07-5.9 13.42-4.42 27.88-8.35 43.56-11.96 32.76-7.53 66.91-12.94 102.28-15.89.87-.16 2.09.16 3.31.66 6.1 3.11 11.67 6.22 16.73 9.5.52.33.35.98-.18 1.14-6.27 1.48-12.37 4.1-18.3 5.9-26.31 8.03-53.67 14.41-81.89 19.49-1.22.16-2.44 1.31-2.61 2.62-5.4 25.88-12.38 51.76-20.73 77.65-.18.49.18.98.7.82 9.76-2.3 19.34-3.28 29.1-3.11 7.67 0 14.98 4.75 20.91 8.85.7.49.52 1.31 0 1.8-2.96 2.13-5.93 3.77-9.06 4.92-15.34 5.24-31.89 8.19-47.92 10.81-.87.16-1.57.66-1.74 1.48-10.45 29.82-22.31 59.63-35.72 89.28-.52 1.31-1.22 2.78-1.57 4.1-.18.49-.52.66-1.04.66-7.15-1.8-13.42-4.42-18.65-8.03-.7-.49-.87-.98-.7-1.64 7.15-28.67 15.16-57.99 24.05-87.81.18-.66 0-1.14-.52-1.64l-4.18-2.62c-.52-.49-.35-1.31.18-1.64l5.93-2.46c.7-.16 1.22-.82 1.4-1.48 8.37-28.83 17.6-57.5 27.88-86.17 0-.16-.18-.33-.35-.33h-.01ZM243.76 389c-12.1 14.16-26.32 26.33-44.05 35.85-3.38 1.85-9.71 5.16-14.35 3.97-5.77-1.32-24.63-5.82-27.44-10.85-1.55-2.65-1.12-6.75-.7-9.52 1.83-13.23 5.21-27.39 9.99-42.33 4.22-13.49 9.43-25.54 15.34-36.12 1.55-2.78 3.66-5.82 6.19-8.87 3.38-4.1 8.02-4.9 13.79-2.65 5.91 2.38 11.68 4.76 17.03 7.27 4.36 1.98 6.05 6.22 7.17 9.92 2.68 9.26 3.94 16.93 3.8 23.15-.14 4.37-2.82 7.41-7.88 9.26-8.44 3.18-17.17 5.82-26.03 7.94-1.41.4-2.39 1.19-2.82 2.51-2.39 8.07-4.65 16.67-6.9 25.93-.14.53-.28 1.06-.56 1.59-.28.26-.14.4.28.26.7-.26 1.41-.66 1.97-1.06 11.96-7.8 24.07-15.88 36.73-23.02 1.12-.66 2.53-.79 4.08-.14l13.93 5.82c.42.26.7.79.42 1.06Zm-47.28-34.92 12.24-6.48-8.02-9.13-4.22 15.61Z" class="st1"/><path d="M286.01 343.64c.38.56.45 1.1.58 1.77.89 7.36 3.58 14.98 8.12 22.7 6.44 11.22 13.24 23.31 15.71 35.6 2.72 12.9-.16 28.82-15.41 30.23-9.96.95-18.58 1.06-25.88.35-7.74-.68-15.44-3.52-23.03-8.26-4.88-2.99-9.15-5.96-13.05-8.79-.46-.38-.45-1.1.07-1.31 2.21-.91 4.81-1.26 7.65-1 7.55.61 13.56 1.14 18.11 1.85 1.73.14 3.72.9 5.36 1.94 2.73 1.45 5.51 3.03 8.41 4.55.77.4 1.73.14 2.05-.56 8.65-19.29-5.25-39.75-14.9-57.67-8.67-15.89-13.19-40.93 12.5-38.77 5.33.38 10.89.96 16.45 1.53 11.07 1.02 19.32 4.78 22.98 16.29.2.49-.09.89-.53.93-7.78 1.06-17.43 2.02-24.79-1.82-.54-.2-.67-.16-.42.46v-.02Z" class="st1"/><path d="M351.35 308.3c-11.82 1.72-24.2 3.04-36.73 3.97-7.32.53-14.35-1.32-20.96-5.69a.962.962 0 0 1 0-1.59c1.83-.93 3.94-1.72 6.19-2.38 17.87-4.37 37.15-6.62 55.73-8.73.7 0 1.12-.4 1.27-.93 3.52-10.19 7.04-20.9 12.1-30.03.56-.93 1.12-1.72 1.83-2.51.85-.79 1.97-1.06 3.24-.66 3.94 1.46 7.74 3.18 11.26 5.29.85.53 1.27 1.19 1.55 2.11.7 3.44.98 6.75.7 10.19-.28 4.23-.98 8.33-1.97 12.17-.14.79.14 1.19.98 1.06 9.14-.93 18.43-1.72 27.58-2.65.85 0 1.55.14 2.53.53 5.07 1.98 9.99 4.37 14.77 6.88.99.66.99.93-.28.93-.7 0-1.55.14-2.25.26-14.21 2.38-28.99 4.76-44.18 7.01-1.27.26-1.97.93-2.25 2.11-10.28 43.66-15.9 65.09-30.68 107.03-2.82 8.2-5.77 16.41-8.87 24.47 0 .14 0 .26-.14.14-6.75-1.32-13.37-3.71-19.84-7.27-.85-.4-1.12-1.06-.98-1.85 10.55-47.89 15.2-72.76 29.69-119.59 0-.14-.14-.26-.28-.26Z" class="st1"/><path d="M385.26 433.45c-2.39-.93-4.5-1.85-6.05-2.78-.42-.26-.56-.53-.56-1.06 5.21-28.71 11.54-57.55 19.28-86.25 1.97-7.27 4.22-14.02 6.9-20.11.7-1.72 1.69-3.18 3.1-4.5.14-.26.56-.4.98-.4 4.5 0 10.55 3.31 14.5 5.03 4.65 2.11 4.22 7.67 3.94 11.24-1.83 15.88-6.05 30.96-11.12 47.1-5.63 18.52-11.68 36.78-18.3 54.9-.14.26-.42.4-.7.26-4.22-.93-8.3-2.11-11.96-3.44Zm9.85-134.94c-3.1-1.32-5.77-2.91-8.16-4.76-.7-.66-.85-1.32 0-2.11.28-.26.7-.53 1.27-.66 4.08-.66 8.58-1.06 13.65-1.19 9.85-.26 19.7-.26 29.83-.4 2.25 0 4.36.4 6.19 1.32 5.63 2.38 10.7 5.03 15.2 7.8 1.12.53.98.93-.28 1.06-12.94 1.19-26.74 2.25-41.37 3.18-2.25.14-4.36-.14-6.48-.66-3.38-1.06-6.61-2.11-9.85-3.57Zm39.82 118.53c-3.1-4.37-3.94-15.61-4.22-21.43-1.27-20.77-1.12-41.01.7-60.85.42-4.1 1.27-7.8 2.68-11.38.42-.93 1.41-1.59 2.25-1.46 2.25.14 4.22.79 6.33 1.98 3.52 2.11 7.18 4.23 10.84 6.62 4.36 2.78 5.21 10.05 5.49 15.61.99 14.55 1.27 27.79.99 39.56 0 1.59.28 1.72.98.26 12.8-23.94 25.19-49.08 37.29-73.03.28-.79 1.12-1.06 1.83-.79 4.5 2.11 9.14 4.63 13.65 7.67.56.26.7.93.56 1.59-7.6 24.34-16.18 47.1-25.75 68.4-4.65 10.32-10.41 20.5-16.47 29.5-2.25 3.31-4.78 6.35-7.6 9.39-1.55 1.46-2.95 2.25-4.92 1.59-5.21-1.72-8.44-2.78-9.71-3.31-5.07-2.25-9.85-5.03-14.21-8.6-.14-.14-.28-.4-.28-.66s-.14-.53-.42-.66Zm117.5-26.45c-.14.53-.56 1.19-.85 1.72-7.18 10.72-15.2 20.5-23.78 29.5-2.11 2.25-6.19 6.35-9.71 5.95-8.72-1.19-16.6-2.38-24.76-5.95-4.22-1.85-2.82-7.94-2.25-11.24.28-1.85.56-3.57.98-5.29 5.77-22.1 14.92-43.79 27.44-64.82 3.94-6.75 9.01-14.29 15.2-19.05 4.78-3.71 10.84-4.5 18.3-2.25 6.05 1.72 11.96 3.71 17.59 5.69.28 0 .42 0 .56-.26l2.68-7.15c.28-.79 1.27-1.46 2.25-1.32 6.61.4 13.09 3.31 19.28 5.29 1.83.53 3.38 1.32 4.65 2.38.28.26.56.66.42 1.06-5.77 26.33-12.67 52.79-20.69 79.38-1.83 6.08-5.07 15.08-9.71 26.86-.14.4-.28.53-.7.4-7.17-.53-13.79-1.98-19.56-4.5-.42-.26-.7-.53-.7-1.06.85-9.92 2.25-21.43 4.5-34.4 0-.26 0-.53-.14-.93-.14-1.06-.42-1.06-.98 0Zm-13.37-25.27c-1.55 3.44-3.1 6.62-4.65 9.52-.37.79-.28.88.28.26 10.97-13.23 21.39-26.72 31.1-40.61.42-.66.42-1.19-.28-1.72l-3.66-2.65c-.7-.4-1.55-.26-1.97.14-2.68 2.78-4.78 5.43-6.48 7.94-5.07 7.94-9.85 16.93-14.35 27.12Zm71.77 65.22c-7.74-2.11-14.64-4.1-21.11-8.47-.42-.26-.56-.53-.56-1.06 6.9-52.92 16.04-105.7 29.83-156.9 1.69-6.48 3.94-13.36 6.61-20.77.42-1.06 1.12-2.11 1.97-3.18.14-.26.56-.4.85-.53 1.27-.14 2.39 0 3.66.53 4.22 1.98 8.3 3.97 12.38 6.08 3.24 1.72 2.82 5.82 2.68 9.39-.28 7.54-1.12 15.61-2.25 23.94-2.25 17.2-5.07 34.13-8.58 51.07-6.61 31.62-14.77 63.9-24.34 97.11-.28.66-.14 1.59-.28 2.38-.14.4-.28.53-.85.4ZM340.79 85.51c-.03-1.06-.37-1.16-.81 0-1.58 3.03-3.76 4.48-7.02 4.45-5.78-.51-11.16-1.54-15.86-3.31-1.73-.61-2.26-1.74-1.71-3.21a31.07 31.07 0 0 1 2.95-7.24c9.83-17.02 19.66-32.19 29.65-45.57 2.78-3.55 8.22-2.21 11.98-1.2 6.14 1.67 12 3.53 17.8 5.11 1.73.61 2.99 2.22 2.83 4.08-.26 4.02-.5 8.18-1.27 12.14-4.77 28.19-10.09 56.93-13.97 85.58-4.08 29.29-8.07 59.17-12.1 89.68-.11.33-.24.5-.71.58-8.85-.42-17.44-2.11-25.62-5.25-.34-.09-.58-.51-.63-.81 2.52-46.43 7.19-90.8 14.36-133.01.21-.65.11-1.24.14-2.01Zm57.91 8.09c-4.68-.97-9.5-2.27-13.7-4.53-1.03-.58-1.38-1.36-1.31-2.2.21-3.04.62-6.15 1.38-9.26 2.2-9.26 5.09-18.25 8.81-27 1.38-3.17 2.89-6.15 4.68-9.06 1.04-1.62 2.55-3.43 5.17-3.17 1.1.07 2.2.26 3.24.45 2.13.45 4.2 1.55 6.27 2.33 1.72.65 3.37 1.75 4.34 3.11.96 1.29 1.44 2.91 2.34 4.27 1.93 2.91 3.79 5.83 5.51 8.87 2.82 4.66 4.96 9.9 2.55 13.99-.83 1.42-1.86 2.72-3.17 3.95-5.72 5.24-12.4 10.42-20.11 15.41-1.59 1.1-3.31 2-5.09 2.78-.28.13-.55.13-.89.07Zm12.19-40.92c-3.03 7.7-5.85 15.61-8.2 23.25-.21.58 0 .71.48.33 2.82-2.2 5.37-4.4 7.72-6.67 2.76-2.72 4.48-5.5 3.37-9.9-.62-2.2-1.44-4.47-2.55-6.86-.35-.65-.55-.65-.83-.13ZM351.4 496.13s.01 0 .02-.01h-.01s-.05-.03-.07-.04c.02.01.04.03.07.05Zm50.8-.16c1.08.38 2.11.8 2.88 1.65.29.32.48.69.64 1.1.36.9.24 1.77-.05 2.64-.18.53-.33 1.06-.61 1.54-.05.08-.09.16-.16.28-.09-.09-.17-.18-.25-.25-.2.22-.21.53-.24.82-.05.43-.3.73-.51 1.11-.19-.27 0-.54-.09-.8-.12.56-.1 1.12-.39 1.61-.21-.15.09-.43-.19-.6-.07.31-.14.6-.2.88h-.07c-.03-.07-.07-.15-.11-.22-.01.01-.04.02-.05.03-.05.18-.12.37-.16.56-.07.33-.03.68-.26.96-.01.02-.03.03-.05.05-.24-.3-.04-.64-.09-.96-.14.11-.12.26-.16.39-.05.18 0 .41-.26.47-.03 0-.05.09-.05.16-.03.17-.05.35-.09.51-.08.42-.22.82-.45 1.19-.51.77-.99 1.56-1.49 2.34-.12.18-.26.33-.37.5-.29.45-.57.92-.87 1.38-.4.62-.81 1.23-1.22 1.85-.28.43-.57.87-.85 1.31-.66 1-1.31 1.99-1.96 2.99-.37.57-.72 1.15-1.1 1.73-.62.94-1.24 1.87-1.85 2.8-.21.33-.41.66-.64 1.06.39-.04.72-.06 1.06-.1 1.32-.16 2.63-.33 3.96-.49.79-.09 1.59-.15 2.36-.28.51-.09 1.04-.07 1.55-.14.41-.05.81-.16 1.22-.22.54-.08 1.09-.12 1.65-.16.72-.04 1.44-.19 2.16-.3.37-.05.73-.12 1.09-.18.12-.02.23 0 .35-.01.1 0 .23.03.3-.02.23-.14.47-.12.7-.1h.1l1.84-.28c.05 0 .13-.05.16-.03.15.09.29.03.43 0 .88-.13 1.76-.24 2.63-.39.42-.07.84-.09 1.26-.15l2.78-.36c.05 0 .09-.02.14-.02.47 0 .93-.14 1.39-.2.53-.07 1.06-.2 1.58-.18 1.33.07 2.61-.27 3.92-.38.69-.05 1.38-.12 2.07-.18.45-.05.89-.13 1.34-.18.18-.02.37 0 .55.03.07.01.18.09.19.16.01.09-.05.19-.1.27-.03.05-.09.07-.14.09-.07.04-.14.08-.22.11-1.18.37-2.33.83-3.54 1.08-.34.07-.67.14-1.01.23.37.02.75.13 1.12-.05.26-.14.54-.05.83.04-.2.07-.4.17-.61.2-.6.07-1.19.12-1.79.18-.95.1-1.9.16-2.84.39-.58.15-1.15.3-1.73.43-1.31.3-2.61.58-3.92.87-1.24.28-2.48.58-3.72.86-.4.09-.46.09-.96.18-1.17.22-2.41.49-3.73.79-.3-.01-.38.01-.39.05 0 .03.02.05 0 .08s-.09.03-.14.02c-.09 0-.09.01-.3.05-.22.04-.45.06-.54.07-.37.04-.99.18-2.2.47-.07.01-.23.05-.45.09-.18.03-.29.04-.35.05-.56.07-1.07.41-1.09.37-.01-.03.28-.19.26-.24-.01-.03-.21 0-.37.08-.13.07-.22.15-.27.21l-3 .61c.39-.14.45-.18.45-.2-.02-.07-1.49.28-2.49.45-.84.15-1.68.3-2.53.44-.17.03-.35 0-.51.02-.52.08-1.04.21-1.56.27-.78.09-1.56.19-2.35.22-.71.03-1.43-.02-2.14-.17-1.34-.27-1.94-1.48-1.73-2.66.14-.78.43-1.52.82-2.2.05-.09.14-.24.26-.46.33-.57.28-.49.34-.58.14-.27.15-.32.24-.41.1-.1.18-.13.24-.25.06-.11.02-.14.07-.29.04-.12.08-.15.22-.37.04-.07.1-.16.18-.29.03-.12.07-.24.16-.27.09-.03.18.08.23.05.07-.05-.06-.27.04-.5.03-.05.05-.09.06-.11.08-.11.17-.14.22-.18.13-.09.12-.28.14-.43.03-.24.19-.32.41-.69.17-.29.71-1.23.95-1.61.2-.32.28-.44.36-.55.54-.74 1.04-1.15 1.03-1.17 0-.01-.17.1-.83.66.14-.18.28-.37.43-.56.14-.18.26-.35.39-.52l.16-.26c.16-.49.36-.96.53-.94.09.01.11.16.19.16.16 0 .17-.56.48-1.24.22-.47.33-.42.68-1.13.08-.16.18-.38.23-.37.07.02-.05.48 0 .49.09.03.54-1.44 1.05-2.24.2-.32.42-.65.42-.65.12-.17.13-.2.29-.44.17-.25.29-.45.39-.6l.34-.53c.28-.44.51-.8.73-1.15.37-.59.66-1.03.81-1.3.28-.51 1.19-1.93 2.1-3.39.3-.49.55-.88.7-1.12.34-.22.49-.35.47-.39-.01-.03-.09-.02-.22 0 .05-.08.09-.14.09-.16.05-.09.17-.26.17-.26.18-.28.88-1.49.88-1.49.49-.87.98-1.54.99-1.54s-.3.47-.64 1.2c-.36.76-.61 1.51-.57 1.52.04.01.34-.6.68-1.3.63-1.29.87-1.92 1.49-2.82.07-.11.14-.2.18-.26l.05.02Zm1.65 7.84h.03v-.33c0 .11-.02.22-.03.32Z" class="st1"/><path d="M403.85 503.81c0-.11.02-.22.03-.32h.01v.33h-.05Zm-20.38-2.9c-.25-.7-.79-1.24-1.42-1.66-.29-.19-.64-.27-.89-.54-.16-.16-.46-.19-.74-.29.06.1.09.16.14.24-.2-.04-.37-.07-.56-.11.12-.21-.03-.29-.16-.38-.04-.02-.09-.03-.14-.04-.87-.24-1.77-.16-2.66-.28-.13-.02-.28 0-.33.18-.02.06-.14.11-.21.12-.49.1-.99.07-1.48-.07-.48-.14-.94-.07-1.37.18-.24.14-.49.2-.76.21-.01 0-.03-.02-.05-.03.03-.07.05-.13.12-.26l-1.04.22c-.07.01-.16.05-.23.03-.33-.09-.64-.06-.93.09-.14.07-.28.14-.45-.01-.06-.05-.19-.05-.29-.05-.14 0-.28.04-.41.04-.06 0-.12-.05-.15-.07-.18.06-.34.14-.5.16-.81.12-1.63.22-2.44.33-.08.01-.19.03-.24 0-.18-.15-.37-.09-.56-.07-.17.01-.35.03-.51.05-.59.05-1.18.09-1.76.17-.73.09-1.46.2-2.19.31-.38.05-.75.11-1.13.18-.25.05-.49.11-.74.17-.13.03-.28 0-.34.18-.01.04-.16.09-.2.07-.16-.11-.29-.01-.43.03-.79.24-1.56.49-2.35.74-.07.02-.14.01-.3.03.18-.24.32-.4.44-.58.23-.35.44-.7.67-1.05.05-.07.1-.18.18-.2.24-.1.37-.31.51-.51.18-.26.37-.51.47-.8.07-.18.14-.33.25-.48.38-.5.7-1.03.93-1.62.2-.51.3-1.04.28-1.59-.01-.33-.28-.6-.18-.94-.23-.44-.38-.92-.77-1.27-.18-.16-.36-.33-.54-.49-.17-.14-.36-.25-.6-.22-.08 0-.17.01-.24-.01-.45-.17-.89-.35-1.35-.53h-.21c-.09.19-.19.39-.29.58-.14.25-.28.51-.44.75-.09.13-.26.2-.33.33-.22.41-.42.85-.62 1.27l.6.52-.63-.45s-.01.02-.01.03c.01.01.03.02.04.03 0 0 0 .01-.01.01s-.03-.02-.04-.03c0 .01-.01.03-.02.04.14.12.28.22.43.34 0 0-.01.02-.02.03-.14-.1-.28-.2-.43-.31 0 .02-.02.03-.03.05.17.14.35.27.51.41 0 .01-.02.02-.03.03l-.58-.39s-.01.01-.02.03c.08.08.17.16.25.24l-.02.02s-.07-.03-.11-.05c.16.17.33.33.49.48-.28-.22-.57-.44-.86-.67-.02.01-.03.03-.05.04l1.75 1.39-.03.03-1.46-1.15h-.01l.33.3c0 .01-.01.02-.02.03-.09-.05-.18-.1-.26-.16 0 .01-.01.02-.02.03l.35.28s-.01.02-.02.03l-.87-.6-.03.03c.47.4.96.79 1.43 1.19-.01.02-.03.03-.04.05-.22-.18-.43-.35-.66-.52 0 .01-.02.02-.03.03.35.27.69.55 1.04.82 0 .01-.01.02-.03.03l-1.37-1.08-.03.03c.46.37.92.73 1.38 1.09-.18-.05-.39-.07-.51-.24-.01-.01-.07 0-.11 0-.03 0-.07-.03-.09-.05 0 0 .01-.05 0-.06-.18-.15-.37-.3-.58-.45.09.14.18.26.28.39-.15-.1-.31-.19-.46-.29l-.03.03c.43.45.94.81 1.42 1.21h.02c.09.07.18.15.26.22-.09-.07-.18-.14-.28-.21-.08.06-.15.11-.22.16-.02-.08-.05-.16-.08-.29.09.03.16.06.23.08l-.99-.75c-.05.05-.1.05-.12.04a.84.84 0 0 0-.33-.19l.72.57c-.01.02-.03.03-.04.05l-.85-.67-.21-.06c.31.25.63.5.95.75l-.03.04c-.28-.22-.56-.44-.83-.66-.01.01-.02.03-.03.04.2.16.41.32.6.48-.01.01-.03.03-.04.05-.3-.23-.59-.47-.89-.7-.02 0-.03.02-.05.03.35.29.7.6 1.04.91 0 0-.01.02-.03.03-.34-.26-.67-.53-1.01-.8 0 0-.01.02-.02.03l1.44 1.14c.11.05.22.1.33.16.05.03.09.12.12.19l.07.06s-.02.03-.03.04a.219.219 0 0 0-.05-.03c-.24.11-.3-.27-.52-.18-.26.1-.3-.27-.58-.18.09-.13.12-.18.18-.27.09.05.19.09.28.14-.45-.36-.91-.72-1.35-1.08-.01.01-.02.03-.03.04.2.16.41.33.62.49 0 .01-.02.02-.03.03-.17-.14-.34-.26-.51-.4l-.02.02.25.22s-.01.02-.02.03c-.12-.1-.24-.2-.37-.3-.14.16-.27.33-.22.58 0 .02-.05.04-.06.07-.14.22-.28.45-.41.68-.15.27-.28.56-.44.83-.16.27-.3.57-.51.8-.42.47-.72 1.01-1.02 1.56-.27.51-.55 1.02-.83 1.52-.03.05-.06.09-.09.14-.16.22-.39.41-.49.66-.21.52-.59.72-1.12.77-.2.01-.41.05-.61.12-.39.12-.79.26-1.18.4-.35.12-.72.16-1.02.42-.05.05-.15.05-.23.06-.48.07-.96.16-1.44.22-.73.09-1.37.47-2.07.66-.22.06-.4.26-.61.39-.09.05-.22.12-.32.11-.45-.05-.79.2-1.08.47-.29.27-.61.5-.96.67-.42.2-.7.52-.94.89-.14.21-.25.44-.39.66-.09.16-.18.33-.31.45-.28.24-.26.57-.32.88-.02.13-.02.27-.05.39-.07.22-.15.44-.24.69 1.42-.09 2.69-.53 3.99-.86 1.31-.33 2.6-.77 3.94-1.19-.1-.07-.16-.12-.22-.16 0-.02.02-.04.03-.06.12.03.25.06.34.08.16-.03.06-.3.27-.21-.02.07-.04.13-.07.22.22-.03.39-.08.59-.05.15.03.35-.13.58-.09-.05.11-.09.18-.13.27-.29.71-.59 1.42-.88 2.13-.05.12-.05.25-.11.35-.47.79-.8 1.64-1.12 2.5-.08.21-.17.47-.34.59-.16.11-.2.22-.26.37-.05.12-.07.24-.13.36-.41.85-.82 1.71-1.23 2.56l-.14.3s.03.02.03.03c.07-.06.14-.12.22-.18 0 .18-.03.35-.12.47-.43.62-.7 1.3-.92 2.01-.26.83-.47 1.67-.73 2.5-.35 1.11-.75 2.21-1.11 3.33-.03.11-.05.22-.07.33-.05.24-.07.49-.17.7-.37.79-.77 1.58-1.17 2.36-.05.09-.09.2-.13.3l.04.02c.16-.18.31-.37.49-.58 0 .08.02.12 0 .15-.1.36-.28.7-.16 1.09v.07c-.07.33.04.56.34.74.52-.14.83-.58 1.12-.96.58-.77 1.08-1.61 1.59-2.45.56-.93 1.08-1.88 1.5-2.88.07-.17.18-.32.27-.48.19-.34.39-.68.58-1.02l.54-.96c.03-.06.09-.11.12-.17.18-.32.36-.64.55-.96.03-.05.07-.11.12-.12.16-.04.19-.18.25-.3.2-.41.39-.81.61-1.21.26-.46.56-.9.83-1.35.05-.07.05-.18.09-.26.06-.16.11-.33.2-.47.17-.26.38-.49.54-.77.47-.82.87-1.68 1.37-2.49.14-.22.23-.49.39-.7.52-.67.93-1.41 1.33-2.15.23-.41.46-.83.75-1.21.86-1.15 1.68-2.33 2.42-3.56.09-.16.22-.22.39-.24.38-.05.76-.1 1.13-.18.2-.04.42-.09.58-.2.12-.08.21-.12.34-.11.26 0 .53.05.79.01.64-.1 1.28-.22 1.91-.37 1.89-.43 3.8-.66 5.74-.66.83 0 1.22.07 1.79-.14.28-.11.99-.43 1.44-.41.05 0 .22.02.45 0 .16-.02.2-.04.37-.06.06 0 .23-.03.44-.02.3 0 .35.05.56.05.2 0 .34-.06.42-.08.39-.12.77-.11 2.66-.21.36-.02.54-.03.64-.03.88-.07 1.46-.19 1.47-.15 0 .01-.05.05-.32.14.38-.05.75-.11 1.13-.16l.91-.1c-.35.24-.7.49-1.05.72-.26.05-.51.1-.77.16.05.01.09.03.1.06 0 .07-.27.16-.35.18-.18.05-.05.03-1.24.63-1.54.77-1.82.83-2.36 1.28-.28.23-.2.2-.45.4-1.17.93-1.83.53-3.08 1.34-.31.2-.49.37-1.19.83-.3.2-.56.35-.72.45l.28-.41c-1.77 1.23-3.03 1.91-3.87 2.31-.26.13-1.02.47-1.98 1.02-.61.35-1.1.66-1.41.86.17.04.42.1.72.18.92.26.89.35 1.42.45.49.09.81.08 1.19.26a8.99 8.99 0 0 0 .85.36c.8.3 1.46.43 1.46.43.62.12.59.02 1.18.14.12.03.41.12 1 .28.75.22.87.26 1.02.33.36.14.64.29.82.39-.01-.03-.03-.07-.04-.14a.43.43 0 0 1 0-.16c.26.04.68.12 1.19.24.86.22 1 .34 1.75.51 1.11.26 1.08.05 1.47.28.35.2.7.56 1.38.68.03 0 .03 0 .07.01.65.17 1.36.09 1.96.58l-.7.62s-.06-.06-.09-.07c-.03-.02-.06-.03-.09-.05-.99.77-1.92 1.63-3.1 2.11v-.15c-.45.2-.87.42-1.3.57-1.18.41-2.37.78-3.55 1.17-.14.05-.39.01-.29.3 0 .02-.03.07-.05.08-.2.09-.39.23-.6.27-.29.05-.6.05-.89.06-.01 0-.03-.03-.05-.05l.22-.24c-.69.15-1.29.35-1.85.64-.03-.06-.05-.09-.07-.16-.19.09-.37.19-.57.26-.37.13-.75.3-1.12.34-.36.03-.7.12-1.04.22-.61.18-1.21.38-1.84.53-.35.09-.7.27-1.06.07-.39.07-.81-.05-1.19.12-.19.08-.41.1-.58.22-.24.17-.51.26-.77.26-.24 0-.45.04-.67.1-.61.16-1.21.34-1.82.51-.07.02-.13.05-.19.09-.35.22-.74.31-1.13.38-.04-.09-.08-.17-.1-.22-.43.12-.84.22-1.23.37s-.83.12-1.19.35c-.04.03-.12.01-.17 0-.24-.09-.44-.02-.6.18-.03.03-.07.07-.1.07-.39 0-.74.16-1.09.3-.14.06-.27.13-.38.23-.24.21-.24.49.01.68.41.3.84.54 1.35.23q.14.22.37.22c.1 0 .21 0 .31-.01.91-.07 1.82-.16 2.73-.22.15-.01.3.02.45 0 .18-.02.35-.07.54-.09.25-.03.54.02.75-.07.18-.09.35-.09.52-.08.37.03.73.1 1.1.11.37 0 .74-.02 1.11-.06 1.09-.12 2.17-.28 3.28-.28.71 0 1.44.03 2.13-.25.05-.02.12 0 .17 0 .7.02 1.39-.03 2.07-.16.82-.15 1.63-.31 2.46-.45.21-.03.44-.15.66.03.03.02.09.01.14 0 .55-.13 1.1-.26 1.69-.41-.11-.09-.18-.14-.26-.2.07-.02.12-.05.17-.05l.79.09c.06 0 .14-.01.19-.04.15-.09.28-.22.44-.3.09-.05.24-.13.32-.09.25.08.45-.05.66-.11.09-.02.23-.08.26-.05.16.2.31.03.47 0 .19-.04.38-.16.56-.15.72.03 1.4-.2 2.09-.31.06-.01.16-.05.16-.09.03-.16.16-.19.28-.24.45-.17.91-.34 1.38-.49.1-.03.22 0 .35 0-.01.1-.03.18-.04.26.15-.18.33-.26.54-.3.58-.12 1.13-.33 1.63-.64.14-.08.32-.09.47-.16.12-.05.33-.13.33-.2 0-.24.18-.27.32-.35.32-.18.65-.35.97-.54.64-.38 1.18-.85 1.62-1.44.36-.49.66-1 .87-1.57.08-.22.21-.39.43-.48l-.12.3c-.04.12-.07.24-.11.35.03 0 .05.02.07.03.22-.34.44-.68.66-1.01.06-.09.1-.19.09-.29 0-.06-.03-.1-.04-.13-.12-.24-.02-.59.05-.82.04-.14.06-.16.11-.33 0-.03.05-.2.07-.35.03-.22.09-.76-.19-1.09-.07-.08-.18-.17-.2-.33-.01-.08 0-.12-.01-.21-.03-.13-.09-.18-.16-.27-.21-.31 0-.6-.22-.77-.05-.04-.18-.08-.16-.17.04-.2-.1-.25-.23-.32-.18-.09-.37-.17-.56-.26-.04-.02-.11-.03-.12-.06-.04-.19-.2-.16-.33-.18-.2-.03-.41-.05-.62-.09-.14-.03-.31-.05-.38-.14-.18-.25-.45-.25-.68-.34-.08-.03-.21-.04-.26 0-.23.18-.39.01-.56-.06.21-.05.41-.09.66-.14a.735.735 0 0 0-.12-.09c-.22-.13-.41-.05-.77-.09-.12-.01-.2-.03-.32-.06-.35-.08-.48-.18-.7-.25-.24-.08-.47-.09-.93-.11-.39-.01-.56.01-.83-.08-.18-.05-.3-.14-.39-.19l-.39-.04c-.2-.02-.4-.05-.59-.07-.27.05-.48.03-.62 0-.12-.02-.2-.05-.39-.07-.09-.01-.18-.02-.24-.03h-1.24c.27-.11.48-.21.63-.29.28-.14.33-.2.5-.24.22-.05.45-.04.45-.09 0-.03-.05-.04-.06-.07 0-.07.22-.14.28-.16.41-.12.64-.16.85-.22.26-.07.29-.1.65-.2.15-.04.27-.07.35-.09.06-.02.15-.05.25-.1.23-.12.31-.26.45-.35.12-.09.33-.16.67-.11.12-.15.24-.25.3-.31.89-.74 1.84-.45 2.99-1.16.03-.02.16-.03.22-.15.26-.47.74-.71 1.09-1.08-.1.3-.08.47.05.5.07-.11.12-.22.2-.3.12-.13.28-.22.37-.36.22-.32.53-.47.82-.56.11-.17.18-.3.27-.43.09-.14.22-.25.28-.39.14-.35.45-.56.7-.79.29-.28.35-.57.07-.85 0-.05.02-.09.03-.14.05-.21.06-.43.3-.55.07-.03.09-.2.09-.31.04-.7-.22-1.37-.45-2h-.09Zm-28.63-6.22-.21-.1s.02-.05.03-.07c.07.03.15.07.22.1-.01.03-.03.05-.04.07Zm-16.8 32.26.07-.14c.12.09.19.18.2.28-.09-.04-.17-.09-.28-.14Zm3.69-10.82c.05-.3.16-.58.37-.8-.09.28-.16.58-.37.8Zm2.9-6.54c.02.15.04.25.05.36-.12-.07-.14-.19-.05-.36Zm8.73-12.66-.22-.04v-.05h.12s.07.03.11.04c0 .01 0 .03-.01.04Zm1.9-1.95.14.03c0 .03-.01.08-.02.08-.05 0-.09-.02-.14-.03 0-.03 0-.05.01-.08Zm.07 2.46-.67-.23c.03-.05.04-.08.05-.12.17.09.33-.12.51 0 .05.03.15-.04.24-.07.03.16-.07.26-.15.43Zm-2.98 28.59s0-.03-.01-.05l.27-.09.02.07c-.09.02-.19.05-.28.07Zm29.96-7.17c-.07.24-.19.46-.41.62.11-.22.21-.45.32-.66l.09.05Zm-.69-4c-.09-.14-.16-.24-.22-.33.16.02.33.04.22.33Zm-.52-.78c-.2.08-.39.13-.54-.08.19-.09.37-.06.54.08Zm-.59-15.16c.14-.05.29-.26.4.1-.17-.04-.28-.07-.4-.1Z" class="st1"/><path d="M337.46 495.29c-.87-1.06-1.82-2.04-2.89-2.89-.28-.23-.59-.45-.89-.67-.22.16-.42.3-.62.43-.02-.01-.03-.03-.05-.03.07-.22.15-.45.24-.7-.07-.02-.17-.09-.23-.06-.28.12-.59.2-.8.46-.11.14-.26.24-.43.41.05-.36.16-.63.33-.81.11-.12.21-.24.3-.34-.09-.13-.16-.24-.24-.37-.4.36-.8.68-1.15 1.04-1.25 1.26-2.19 2.17-3.35 3.31-.54.53-.8.79-.8.79-.17.13-.39.28-.36.36.03.09.34 0 .37.07.05.12-.85.43-1.53 1.08-.11.11-.21.22-.47.45-.26.25-.35.31-.47.47-.2.25-.18.35-.33.55-.43.63-1.07.46-1.29 1-.05.13-.07.29-.23.48-.12.16-.26.24-.3.26-.43.26-.79.62-1.21.88-1.02.65-2.16 2.11-2.13 2.14.05.04 3.05-2.96 2.97-3.04-.12-.14-7.97 7.44-8.21 7.62-.03.02-.15.08-.19.2-.03.1-.07.14-.18.16-.09.03-.26.18-.24.21.09.2-.08.24-.18.31-.44.34-.89.67-1.33 1-.08.06-.16.13-.28.23.13.08.22.14.32.19 0 .14-.05.24-.2.21-.37-.07-.61.13-.83.39-.16.17-.35.3-.52.46-.17.15-.3.37-.59.31 0 0-.02.01-.03.02-.19.15-.33.33-.41.57.07 0 .11 0 .14.01-.12.14-.26.26-.41.32-.18.07-.28.15-.2.36.07.19-.03.28-.2.33-.09.03-.18.03-.27.03-.35.02-.49.14-.59.48-.03.12-.06.25-.1.37-.02.06-.05.14-.1.18-.18.13-.38.25-.58.38-.09-.15-.18-.3-.29-.47-2.34 1.96-4.67 3.88-7.07 5.8 0-.14 0-.22.01-.29.12-.65.24-1.3.35-1.94.02-.09.02-.21 0-.3-.12-.43 0-.77 0-.79 0-.83.53-2.78.56-2.78 0 0-.01.05-.02.19s0 .25 0 .33c.03-.08.06-.21.09-.36.16-.68.12-.96.22-1.69.01-.09.07-.39.19-1 .09-.45.16-.83.2-1.02.05-.26.07-.36.17-.83.1-.49.16-.8.24-1.14.33-1.61.3-1.52.31-1.57.14-.35.33-.72.18-1-.04-.07-.12-.17-.12-.3 0-.15.12-.26.21-.34.14-1.21.24-1.82.31-1.82.04 0 .07.19.08.57.2-1.64.36-2.95.49-3.99.02-.15.07-.41.04-.76-.07-.82-.34-1.59-.75-2.3-.96-1.67-2.19-3.13-3.6-4.43-.07-.06-.14-.11-.22-.18-.05.07-.11.12-.14.18-.26.58-.7 1.02-1.12 1.48-.22.25-.39.54-.61.79-.19.23-.46.41-.6.66-.15.28-.35.46-.61.61-.05.03-.09.11-.14.16-.12.12-.24.22-.34.34-.23.27-.45.56-.66.82.07.14.13.23.19.34-.11.05-.19.09-.26.14-.05-.05-.1-.09-.16-.16-.16.22-.3.42-.46.63.05.03.13.06.22.1-.3.37-.6.72-.87 1.08-.34.45-.72.85-1.15 1.21-.35.29-.66.62-.93.98-.91 1.16-1.83 2.3-2.73 3.46-.28.35-.49.77-.79 1.1-.85.91-1.58 1.91-2.35 2.88-.7.88-1.42 1.74-2.03 2.68-.47.7-.99 1.37-1.5 2.04-.28.38-.62.72-.91 1.1-.18.22-.32.48-.48.72-.09.14-.2.28-.32.41-.37.37-.79.7-1.11 1.1-1 1.23-2 2.46-2.95 3.73-1.22 1.65-2.39 3.33-3.58 5-.05.06-.09.13-.13.19l.29.1c.12.04.24.09.36.13.05.01.12.01.18.01l.02.02c.03 0 .05.01.07.02.02 0 .04.01.06.02v.03s-.03 0-.04.01v.02h.22s-.04.03-.07.04c.12.07.24.14.35.21-.09-.03-.18-.07-.27-.11-.13-.05-.25-.1-.38-.15-.14-.05-.28-.09-.43-.14-.03-.01-.08 0-.12.02l.51.14c-.06 0-.12 0-.18-.02v.02c.06.02.12.03.18.05.03 0 .07.02.09.03 0 .01 0 .03-.01.04-.07 0-.15-.02-.22-.03.02 0 .05.01.07.03.01 0 .03.03.03.04 0 .01-.01.03-.02.05.05.01.09.03.14.03.07.01.14.06.22 0 .05.01.1.02.14.04.05.03.09.07.12.09h-.05s.07.03.1.05v.02c-.07-.01-.15-.03-.22-.04v.02c.02 0 .03.02.05.03-.03.06-.06.09-.11.1-.05-.02-.09-.04-.14-.06v-.06a4.97 4.97 0 0 0-.22-.09l-.1-.03c-.03-.01-.07-.03-.1-.04-.12-.03-.25-.05-.37-.09a.95.95 0 0 1-.21-.09c0 .01 0 .02-.01.03l.32.09v.02l-.26-.02c.07.05.16.08.23.12-.2-.01-.4-.07-.59-.14-.03.03-.06.06-.09.08h.08v.04l-.09-.03v.02l.36.1c-.09.01-.19.02-.27-.04a.31.31 0 0 0-.13-.06c-.06.03-.13.05-.2.06.36.16.78.13 1.14.41-.33.01-.6.02-.84.03-.13.08-.03.22-.18.3-.13.07-.16.29-.38.26 0 .05-.01.11-.02.16-.21 0-.41 0-.6-.03-.22-.05-.34.05-.46.21-.3.4-.62.79-.92 1.17-.22.27-.43.54-.64.81.02.04.03.07.05.08.03.03.07.06.11.08 1.23.76 2.56 1.09 4.01.92 1.55-.18 2.91-.75 4.1-1.79a49.85 49.85 0 0 0 3.68-3.59c.89-.96 1.77-1.92 2.61-2.93.72-.85 1.36-1.76 2.05-2.63.96-1.21 1.94-2.39 2.91-3.58.05-.05.14-.14.18-.13.14.05.19-.05.25-.12.33-.4.68-.79 1-1.21.32-.41 1.14-1.6 1.21-1.56.04.03-.26.57-.24.58.04.03.75-1.23 1.88-2.76.09-.13.24-.32.54-.7a73.76 73.76 0 0 1 1.69-2.14c.09-.12.17-.2.22-.26 0 .26-.03.49-.08.72l-.39 2.08c-.03.16.06.37 0 .49-.12.24-.08.47-.12.7-.03.18-.03.37-.07.54-.06.33-.15.65-.21.98-.05.3-.04.6-.12.89-.14.46-.18.93-.18 1.4 0 .08 0 .18-.04.23-.22.27-.16.58-.18.62-.07.21-.12.77.03 2.34-.08.03-.19.07-.28.16-.1.1-.26.35.11 1.88.2.84.36 1.23.43 1.39.06.14.18.43.37.75.66 1.12 1.57 1.68 1.49 1.8-.05.07-.4-.11-.42-.07s.38.26.8.54c.58.39.54.45 1 .75.6.39 1.13.56 1.32.62.54.17.98.21 1.14.22.39.03.69 0 .85-.02.41-.05.7-.13.79-.16.39-.12.75-.27 1.21-.6.84-.6 1.61-1.28 2.42-1.92.14-.11.29-.18.43-.28.18-.12.41-.19.47-.43.01-.04.08-.07.12-.1.14-.1.28-.2.41-.31.21-.18.39-.41.61-.57.5-.37.56-.28.75-.56.11-.15.19-.34.4-.41.08-.03.15-.03.2-.02.29-.12.58-.25.87-.37.05-.07.12-.19.21-.34.12-.2.2-.34.21-.36.39-.69 2.46-1.92 2.63-2.15.01-.01.07-.13.14-.09.14.07.21-.04.28-.12l3.56-3.35c.18-.16.31-.37.58-.39.05 0 .11-.08.16-.12.22-.2.45-.4.66-.61.18-.17.35-.35.51-.52.11-.12.21-.25.29-.39.09-.16.28-.13.38-.21.41-.33.81-.66 1.07-1.12.31-.54.73-.98 1.27-1.31.57-.35 1.04-.82 1.47-1.31.07-.08.16-.2.15-.29-.01-.13.05-.19.12-.26.43-.47.87-.93 1.3-1.4.05-.05.11-.09.22-.18-.15.35-.47.49-.53.89.14-.09.22-.12.27-.18.37-.37.74-.75 1.12-1.1 1.22-1.13 2.39-2.32 3.58-3.49.08-.08.17-.15.25-.22.01 0 .03.01.04.03-.04.11-.07.21-.12.32-.3.73-.6 1.46-.89 2.19-1.65 4.31-2.85 8.73-3.47 13.3-.18 1.31-.26 2.63-.17 3.95.03.37.09.72.26 1.06.08.16.27.38.01.58-.02.01-.02.07 0 .1.17.37.06.86.51 1.09.02 0 .03.03.03.06.12.24.22.47.34.71.03.06.07.14.12.16.14.08.18.21.2.35.03.41.23.74.47 1.06.71.96 1.55 1.77 2.67 2.27.54.24 1.09.39 1.67.46.18.02.39.06.56-.18-.2-.22-.38-.45-.6-.62-.18-.15-.32-.29-.44-.51-.29-.55-.51-1.11-.66-1.71-.02-.07-.1-.12-.17-.2.01-.05.05-.13.05-.21 0-.09.01-.19-.02-.27-.01-.03-.12-.04-.18-.06.03-.18.09-.36.09-.54 0-.18-.03-.37-.04-.56-.01-.24-.03-.49-.03-.73-.01-.89-.03-1.33.05-1.53.03-.09.11-.26.03-.37-.06-.08-.18-.1-.28-.1.1-.21.24-.52.37-.92.22-.7.19-1.03.33-2.04.14-1.06.37-1.83.45-2.32.07-.45.22-.87.38-1.29.14-.37.33-.71.46-1.08.14-.38.12-.4.22-.61.13-.28.26-.45.2-.54-.04-.06-.15-.06-.22-.05.17-.18.35-.42.51-.72.21-.39.35-.82.4-1.27.25-.49.4-.72.45-.7.04.01 0 .2-.09.57.83-1.88 1.38-3.16 1.59-3.72 0 0 .26-.57.6-1.29.04-.08.09-.16.14-.24.09-.13.2-.24.28-.39.23-.41.44-.84.66-1.25.14-.25.3-.49.34-.79.01-.09.09-.19.13-.28.23-.49.46-.98.7-1.47.05-.09.09-.2.17-.26.39-.33.58-.79.83-1.23.09-.16.12-.33.05-.49v-.07h.18c.36-.89.64-1.81.73-2.77.1-1.08-.18-2.03-.87-2.87Zm-64.94 33.03c-.08-.01-.16-.03-.24-.05v-.05h.25s0 .07-.01.09Zm.19-.75c.08.06.14.11.2.16-.1.05-.16 0-.2-.16Zm59.57-35.05c-.1-.03-.15-.05-.24-.08.09-.1.15-.18.26-.3v.39h-.01Zm-7.38 50.84c.22-.01.36-.04.5-.03.22.01.48-.01.59.15.09-.05.18-.09.26-.14-.44-.02-.88-.18-1.35.01Zm2.43-.23c-.33-.02-.56-.03-.82-.05.05.03.09.05.13.07l-.84.02v.06c.56 0 1.12.01 1.62.01-.09-.01-.24-.03-.47-.06.15-.03.22-.03.37-.06Zm.4-.2c.72.04 1.45.09 2.17.13v-.03c-.72-.04-1.44-.09-2.16-.13 0 0 0 .02-.01.03Z" class="st1"/><path d="M402.4 541.33c-.6-.07-1.17-.26-1.79-.22l-1.28.06c-.05 0-.11 0-.16-.01-.37-.18-.78-.07-1.16-.2-.27-.09-.59-.09-.89-.12-.21-.03-.41-.07-.62-.07-.77-.01-1.54-.14-2.31-.08-.06 0-.13-.02-.19-.04-.19-.06-.37-.11-.55.04-.04.03-.16.03-.22 0-.47-.14-.96-.14-1.44-.12-.91.05-1.82-.2-2.74-.09h-.08c-.38-.03-.75-.07-1.13-.12-.1-.01-.25 0-.3-.05-.08-.09-.14-.05-.23-.05-.96 0-1.92.05-2.87 0-.58-.03-1.14-.08-1.71.03-.24.05-.39-.03-.48-.18-.51.07-.98.16-1.46.05-.14-.03-.27-.01-.41-.01-.48.01-.96.07-1.44-.11a.828.828 0 0 0-.56.02c-.24.12-.43.08-.66 0-.11-.03-.22-.07-.33-.07-.67.01-1.33.03-2 .05-1.01.05-2.01-.04-3.02-.05-.07 0-.13-.02-.2-.03-.24-.02-.49-.06-.74-.07-.41 0-.81 0-1.22.01-.37.02-.77-.1-1.1.13-.03.02-.07 0-.12 0-.39-.03-.79-.03-1.17-.09-.53-.07-1.04-.12-1.56.02-.14.03-.3.07-.42.02-.33-.14-.67-.07-1-.06-.16 0-.31 0-.47.01-.27 0-.55.02-.82.03-.1 0-.21.01-.31 0-.19-.02-.39-.07-.58-.07-1.23 0-2.45.1-3.69.04-1.54-.08-3.1-.03-4.65-.03h-.9c-.37.01-.74.06-1.11.07-.45.02-.91.02-1.38.03-.87.03-1.73.05-2.6.07-.31 0-.64-.06-.94-.02-.58.08-1.14.09-1.72.09-1.09 0-2.18.04-3.27.06l-2.63.04c-.42 0-.85 0-1.26.05-.55.07-1.1.05-1.65.03-.72-.03-1.44-.08-2.15.1-.08.02-.18-.01-.26-.01-.1 0-.2-.01-.3 0-.31.06-.61.09-.93.04-.25-.03-.51.03-.77.06-.09 0-.18.05-.26.04-.85-.05-1.71-.03-2.55.06-.07 0-.16-.01-.24 0-.31 0-.62.01-.94.03-.24 0-.47.03-.7.04-.59.01-1.18 0-1.77.03-.66.03-1.31.07-1.96.12-.63.04-1.26.06-1.88.13-.37.04-.71.13-1.08 0H321c-.58.03-1.15.05-1.73.09-1.36.08-2.72.14-4.07.32-.76.11-1.54.09-2.32.14-.52.03-1.06.02-1.57.1-.33.05-.64.11-.96.03-.05-.01-.1 0-.16 0-.8.07-1.59.14-2.39.19-1.27.09-2.54.18-3.81.24-1.18.06-2.37.01-3.53.22-.66.12-1.33.07-1.98.13-.16.01-.31.04-.47.05l-2.47.18c-.13.01-.28.07-.38.14-.31.22-.62.46-.91.7-.79.66-1.57 1.32-2.36 1.98-.04.03-.07.09-.14.18 1.53.05 2.96.44 4.44.43.43 0 .87.07 1.29.13 2.59.34 5.17.68 7.77 1.02.52.07 1.04.12 1.57.04.18-.03.41-.03.54.05.19.12.39.14.59.16.6.06 1.21.1 1.8.17.37.04.74.11 1.11.17l.55.02 1.04-.18c.66-.1 1.31-.24 1.98-.29.7-.05 1.38-.12 2.05-.3.04 0 .08-.01.12-.01.31-.02.62-.03.93-.07.18-.02.36-.06.54-.09l1.17-.14c.77-.09 1.52-.2 2.29-.3.22-.03.47.01.66-.06.44-.17.91-.17 1.38-.22.66-.07 1.33-.09 2-.16.43-.04.85-.14 1.27-.19-.65-.04-1.3-.07-1.96-.12-.16 0-.31-.03-.47-.05h.48c-.55-.05-1.04-.08-1.54-.12 0-.03 0-.05.01-.08.98.05 1.96.12 2.94.16.04 0 .09-.05.12-.07l-1.03-.06v-.07c.32.02.64.04.96.05.15 0 .29 0 .43-.01-.3-.02-.6-.04-.89-.07-.26-.03-.5-.09-.76-.1-.3-.02-.6 0-.91-.01-.43-.02-.87-.05-1.31-.07v-.06c.45.03.89.05 1.34.07v-.06c-.68-.04-1.36-.07-2.05-.12 0 0-.01-.01-.01-.02.07 0 .14-.02.2-.02.37.01.73.05 1.09.05.22 0 .46.08.65-.05.06-.04.4.01.62.05-.07 0-.15 0-.26.01.08.03.14.05.2.07-.05 0-.1.02-.15.03v.03c.65 0 1.31 0 1.96.01v-.05l-.6-.06-.02-.02.86-.02v-.07l-3.14-.18c.34-.07.73.04 1.03-.09 0 0 .05.01.09.02.31.05.62.1.93.13.47.04.94.05 1.42.05-.05-.01-.09-.02-.24-.05.21-.02.35-.05.49-.05 1.19.04 2.38.08 3.58.13l3.75.14c.85-.1 1.71-.21 2.57-.31.24-.03.49.02.73 0 1.27-.09 2.54-.19 3.81-.3.33-.03.69.03.95-.22.03-.03.1-.01.15-.03.33-.09.66-.03 1.01 0l-.08.13c.33-.03.61-.05.89-.07l1.55-.14c.08 0 .16-.03.23-.03.51-.03 1.02-.05 1.52-.09.72-.06 1.44-.15 2.15-.22.3-.03.61-.07.9-.03.48.06.96.08 1.44.05.54-.03 1.04-.18 1.59-.16.56.01 1.12-.07 1.68-.12.27-.03.54-.09.81-.09.31-.01.63-.18.93.05.03.02.1 0 .15 0 .85-.08 1.7-.18 2.57-.12.15.01.3-.08.45-.09.43-.02.87 0 1.29-.04.44-.05.89.16 1.32-.02.03 0 .07.03.11.03.12.01.23.05.35.04.98-.06 1.96-.14 2.95-.19.73-.04 1.46-.11 2.19-.09.87.02 1.73.03 2.59-.03.62-.04 1.23-.05 1.85-.07.41-.01.81 0 1.22 0 .48-.02.97-.1 1.45-.08 1.08.05 2.15-.03 3.22-.09.56-.03 1.12-.02 1.69-.03.6-.02 1.2-.05 1.8-.07.17 0 .33-.05.49-.03.26.03.51.03.76-.09.1-.05.25-.05.38-.05h.43c.13 0 .26-.02.39-.02.23 0 .46.01.69.01.12 0 .24-.02.35-.02.83.03 1.66.11 2.49-.07.43-.1.91-.06 1.38-.08.05 0 .09.03.16.04l-.16.23c.36-.18.67-.2 1-.15.07.01.16-.01.24 0 .54.02 1.06-.12 1.6-.01.09.02.22 0 .3-.04.22-.12.45-.1.68-.09 1.08.03 2.15 0 3.22-.1.32-.03.64-.06 1-.1-.07.06-.09.08-.14.12.39.01.72.01 1.06.05.24.03.45-.02.68-.11.2-.08.51-.15.67-.07.25.12.47.1.7.07.41-.05.83-.12 1.24-.17.27-.03.36-.08.38-.26.02-.17-.08-.33-.3-.35Z" class="st1"/><path d="M352.99 568.78c-.37 0-.56 0-1.04-.01l1.5.09c.3-.02.62-.03.89-.05-.45 0-.93-.02-1.35-.03Zm121.2-18-.31.13c.26-.1.49-.2.66-.24l-.35.12Zm-60.69-70.56v.06l1.39.2-1.39-.26Zm34.61 20.6c-.15-.07-.45-.2-1.07-.43.04.03.51.21 1.07.43ZM412 489.58l-5.16-1.4c2.24.61 3.86 1.05 5.16 1.4Zm-28.34-6.55c-.37-.03-.48-.01-.58 0 .02 0 .04 0 .05.01h.52Zm-208.49 50.81c-.24-.32-.49-.63-.7-.91-.83-1.07-.91-1.28-.71-.96.2.32.79 1.08 1.42 1.87ZM306.36 570c-1.46-.1-2.89-.2-4.42-.31 2.44.24 4.34.43 4.42.31Zm-21.38-111.47h-.01c.33-.04.62-.07.94-.12l-.93.11Zm10.61 110.55c2.43.27 4.48.45 6.37.6-2-.2-4.35-.45-6.37-.6Zm-37.48-90.56-1.4.14s-.05.03-.16.05l1.56-.19Zm-1.56.19c-.51.07-1.03.12-1.54.2.71-.09 1.33-.15 1.54-.2Zm-4.78.73 3.24-.53c-1.12.16-2.51.36-3.24.53Zm44.76-3.51.44-.09c-.24.02-.39.05-.44.09Zm11.7-.15c-1.4-.01-3.15-.14-5.04-.12-1.89.01-3.92.04-5.87.11l-.36.07c.91-.08 3.07-.09 5.32-.1 2.26-.05 4.61.1 5.94.03Zm48.61 4.08-2.42-.34c-.81-.12-1.62-.22-2.42-.29l-4.87-.49c1.69.24 3.92.57-.51.18 6.12.7 5.49.6 4.93.47-.28-.06-.55-.14.05-.11.3.01.82.04 1.66.12.84.11 2 .26 3.58.47Zm29.93 4.87c-5.16-.98.04.11-.24.12 3.27.62 4.06.77.24-.12Zm20.94 81.52.49-.27c-4 .6-.03.08-.49.27Zm-41.66 4.98 3.96-.03c.62-.07 1.25-.21 1.87-.31l-1.46.12-1.46.07-2.91.15Zm-24.79-.89 1.77-.04-3.38.06-3.37-.05c1.66.02 3.33.09 4.99.03Zm-13.55-112.41-1.22-.26c-2.74.03-3.31.3 1.22.26Zm149.55 43.91c.32.3.77.7 1.3 1.16.54.45 1.14.98 1.75 1.54 1.23 1.12 2.49 2.36 3.4 3.35a39.16 39.16 0 0 0-3.53-3.61c-1.14-1.04-2.21-1.87-2.92-2.44Zm-105.88-24.58c-1.06-.03-2.13-.09-3.19-.11 2 .07 4 .2 6.01.3l-2.82-.2Z" class="st0"/></svg>