<svg xmlns="http://www.w3.org/2000/svg" viewBox="0 0 1920 125"><path d="M1046.65 59.04c-9.95-3.41-22.78-6.52-37.91-7.13-3.55-.14-6.95-.14-10.18-.02 6.67.84 13.6 1.86 20.76 3.08a483.12 483.12 0 0 1 27.22 5.44c-.02-.45.04-.92.11-1.37Z"/><path d="M1426.32 86.82c-5.91-1.23-11.84-2.45-17.78-3.61-5.91-1.15-11.86-2.2-17.77-3.35a253 253 0 0 1-9.17-1.98c-4.17-.97-8.47-3.14-12.42-2.78-7.51.69-14.44 1.22-20.6-2.75-2.62-1.69-5.66-3.05-8.03-4.91-4.96-3.89-9.42-8.15-14.48-11.96-1.67-1.26-4.47-1.73-6.85-2.36-6.44-1.69-13.25-2.79-19.32-5.03-4.91-1.81-8.88-5.03-13.44-7.43-1.2-.63-3.05-.85-4.59-.79-5.29.18-10.61.3-15.14 3.02-1.09.65-2.72.82-4.13 1.13-4.37.95-8.8 1.75-13.11 2.83-5.31 1.33-10.39 3.36-15.8 4.21-5.68.9-11.63.8-17.47 1.07-7.56.36-15.14.51-22.68 1.02-6 .41-12.23 2.33-17.86 1.57-6.89-.93-13.56-3.55-19.76-6.18-4.46-1.9-8.58-2.19-13.06-.99-17.42 4.66-34.88 9.24-52.13 14.26-8.12 2.36-15.47 3.4-22.42-1.5-3.24-2.28-7.23-2.33-11.54-2.29-1.45.01-2.9 0-4.35-.01-1.24.23-2.27.33-2.99.39-1.55.12-2.39.06-2.79.63-.29.41-.21.97-.11 1.37 3.18-1.01 8.43-2.19 14.36-1.18 5.1.87 7.42 2.95 8.07 3.29 1.14.6 1.66 1.86 2.79 3.22-1.59.2-3.74.47-5.89.73l-1.14-.54-.06-.04c-.54-.14-1.08-.27-1.62-.41l-1.76-.36.15.08c-.66 0-1.32.01-1.98.02.28 2.36-2.06 1.99-3.98 2.37-.98.19-1.95.39-2.92.6.1.34.21.68.29 1.02.07.28.13.56.17.84 3.55-.21 7.21-.44 10.88-.68 2.45-.16 5.01-.21 7.32-.79 10.66-2.68 21.29-5.45 31.86-8.33 13.35-3.64 26.59-7.52 39.98-11.07 3.51-.93 7.14-1.12 9.23 2.45.7 1.2 3.67 1.75 5.74 2.33 2.5.7 5.32.83 7.7 1.68 14.99 5.31 29.9 10.75 45.54 16.4l-32.04 2.86c4.19 1.27 8.25 2.5 12.53 3.79-1-1.16-1.89-2.18-3.2-3.68 9.55-.76 18.53-.84 27.1-2.33 8.4-1.46 14.67 1.75 21.88 3.27 8.02 1.69 16.48 1.89 24.83 1.88v-1.03c-1.57.17-3.14.34-5.11.56.56-.76.9-1.22 1.67-2.27-2.55.2-4.62.36-6.18.48-1.36-.49-2.44-1.16-3.58-1.22-1.73-.08-3.55.12-5.24.47-6.45 1.3-11.33-1.22-16.28-3.6-.11-.05.15-.55.23-.81 1.02.24 1.92.45 2.81.67l-.05-2.41c1.9.18 3.84.37 5.79.56l.53-1.48c-14.23-4.06-28.87-7.16-43.94-9.3.29-.28.69-.67 1.1-1.07-1.18-.27-2.34-.55-3.51-.82.03-.37.06-.74.08-1.11 6.05-.6 12.08-1.44 18.15-1.71 2.79-.13 5.76.63 8.45 1.39 4.52 1.28 8.85 2.94 13.33 4.31.56.17 1.53-.42 2.59-.74 1.87 2.15 8.23-.78 9.47 3.63 1.36.06 3.13.15 4.38.21-4.07-2.74-8.37-5.63-13.36-8.99 4.05-1.31 7.98-2.6 11.92-3.86 4.48-1.43 8.84-3.5 13.5-4.08 4.19-.51 7.58-2.15 11.36-2.89 4.27-.83 10.01-1.41 13.32.11 5.21 2.39 9.85 6.2 13.06 10.18 4.39 5.45 9.32 10.18 16.58 13.45 2.28 1.03 4.54 2.09 6.81 3.14l.68-.86c-1.91-.94-3.83-1.88-6.06-2.98.75-.33 1.3-.57 2.42-1.06-6.53-1.88-3.17-6.07-4.77-9.41 3.5 1.22 4.35 5.22 10.05 4.36-2.39-1.67-4.07-2.84-5.75-4.02.06-.29.13-.59.19-.88 1.92.15 4.23-.15 5.66.57 2.12 1.06 3.75 2.76 5.33 4.34 5.2 5.21 10.24 10.5 15.42 15.72 2.42 2.44 4.97 4.81 7.56 7.14 1.08.97 2.43 1.78 3.65 2.67.21-.18.42-.36.64-.54l-4.21-5.06 2.94-.06-4.95-4.46.78-.9c1.28.62 2.57 1.23 3.84 1.87 5.09 2.55 9.95 5.42 15.35 7.52 2.66 1.04 6.4 1.28 9.98-.88-1.96-1.17-3.45-2.05-4.93-2.93l-1.02.86c1.39.61 2.79 1.22 4.93 2.15-6.81.81-7.77-3.65-12.67-4.66 5.32-2.2 8.9-.88 12.71.36 4.26 1.39 8.69 2.56 13.18 3.44 3.87.76 8.02.75 11.91 1.47 8.62 1.59 17.17 3.43 25.75 5.14.08.02.28-.3.6-.65-1.09-.36-2.07-.81-3.14-1.03ZM972.65 61.35c1.78-1.04 3.86-1.78 5.97-2.12 2.25-.71 4.5-1.25 6.78-1.34 6.6-.27 9.78-3.7 13.16-6-4.5 1.23-9.85 2.44-14.96 4.16-5.07 1.71-9.91 3.94-14.84 5.95.18.16.36.33.54.49 1.12-.34 2.24-.73 3.36-1.13Zm-3.36 1.13c-6.28 3.04-12.47 6.21-18.86 9.07-4.27 1.91-8.81 3.37-13.74 4.2 10.69-4.59 21.38-9.17 32.06-13.76.18.16.36.33.54.49Zm567.91 8.97c-9.95-3.41-22.78-6.52-37.91-7.13-3.55-.14-6.95-.14-10.18-.02 6.67.84 13.6 1.86 20.76 3.08a483.12 483.12 0 0 1 27.22 5.44c-.02-.45.04-.92.11-1.37Z"/><path d="M1916.87 99.24c-5.91-1.23-11.84-2.45-17.78-3.61-5.91-1.15-11.86-2.2-17.77-3.35a253 253 0 0 1-9.17-1.98c-4.17-.97-8.47-3.14-12.42-2.78-7.51.69-14.44 1.22-20.6-2.75-2.62-1.69-5.66-3.05-8.03-4.91-4.96-3.89-9.42-8.15-14.48-11.96-1.67-1.26-4.47-1.73-6.85-2.36-6.44-1.69-13.25-2.79-19.32-5.03-4.91-1.81-8.88-5.03-13.44-7.43-1.2-.63-3.05-.85-4.59-.79-5.29.18-10.61.3-15.14 3.02-1.09.65-2.72.82-4.13 1.13-4.37.95-8.8 1.75-13.11 2.83-5.31 1.33-10.39 3.36-15.8 4.21-5.68.9-11.63.8-17.47 1.07-7.56.36-15.14.51-22.68 1.02-6 .41-12.23 2.33-17.86 1.57-6.89-.93-13.56-3.55-19.76-6.18-4.46-1.9-8.58-2.19-13.06-.99-17.42 4.66-34.88 9.24-52.13 14.26-8.12 2.36-15.47 3.4-22.42-1.5-3.24-2.28-7.23-2.33-11.54-2.29-1.45.01-2.9 0-4.35-.01-1.24.23-2.27.33-2.99.39-1.55.12-2.39.06-2.79.63-.29.41-.21.97-.11 1.37 3.18-1.01 8.43-2.19 14.36-1.18 5.1.87 7.42 2.95 8.07 3.29 1.14.6 1.66 1.86 2.79 3.22-1.59.2-3.74.47-5.89.73l-1.14-.54-.06-.04c-.54-.14-1.08-.27-1.62-.41l-1.76-.36.15.08c-.66 0-1.32.01-1.98.02.28 2.36-2.06 1.99-3.98 2.37-.98.19-1.95.39-2.92.6.1.34.21.68.29 1.02.07.28.13.56.17.84 3.55-.21 7.21-.44 10.88-.68 2.45-.16 5.01-.21 7.32-.79 10.66-2.68 21.29-5.45 31.86-8.33 13.35-3.64 26.59-7.52 39.98-11.07 3.51-.93 7.14-1.12 9.23 2.45.7 1.2 3.67 1.75 5.74 2.33 2.5.7 5.32.83 7.7 1.68 14.99 5.31 29.9 10.75 45.54 16.4l-32.04 2.86c4.19 1.27 8.25 2.5 12.53 3.79-1-1.16-1.89-2.18-3.2-3.68 9.55-.76 18.53-.84 27.1-2.33 8.4-1.46 14.67 1.75 21.88 3.27 8.02 1.69 16.48 1.89 24.83 1.88v-1.03c-1.57.17-3.14.34-5.11.56.56-.76.9-1.22 1.67-2.27-2.55.2-4.62.36-6.18.48-1.36-.49-2.44-1.16-3.58-1.22-1.73-.08-3.55.12-5.24.47-6.45 1.3-11.33-1.22-16.28-3.6-.11-.05.15-.55.23-.81 1.02.24 1.92.45 2.81.67l-.05-2.41c1.9.18 3.84.37 5.79.56l.53-1.48c-14.23-4.06-28.87-7.16-43.94-9.3.29-.28.69-.67 1.1-1.07-1.18-.27-2.34-.55-3.51-.82.03-.37.06-.74.08-1.11 6.05-.6 12.08-1.44 18.15-1.71 2.79-.13 5.76.63 8.45 1.39 4.52 1.28 8.85 2.94 13.33 4.31.56.17 1.53-.42 2.59-.74 1.87 2.15 8.23-.78 9.47 3.63 1.36.06 3.13.15 4.38.21-4.07-2.74-8.37-5.63-13.36-8.99 4.05-1.31 7.98-2.6 11.92-3.86 4.48-1.43 8.84-3.5 13.5-4.08 4.19-.51 7.58-2.15 11.36-2.89 4.27-.83 10.01-1.41 13.32.11 5.21 2.39 9.85 6.2 13.06 10.18 4.39 5.45 9.32 10.18 16.58 13.45 2.28 1.03 4.54 2.09 6.81 3.14l.68-.86c-1.91-.94-3.83-1.88-6.06-2.98.75-.33 1.3-.57 2.42-1.06-6.53-1.88-3.17-6.07-4.77-9.41 3.5 1.22 4.35 5.22 10.05 4.36-2.39-1.67-4.07-2.84-5.75-4.02.06-.29.13-.59.19-.88 1.92.15 4.23-.15 5.66.57 2.12 1.06 3.75 2.76 5.33 4.34 5.2 5.21 10.24 10.5 15.42 15.72 2.42 2.44 4.97 4.81 7.56 7.14 1.08.97 2.43 1.78 3.65 2.67.21-.18.42-.36.64-.54L1841.6 92l2.94-.06-4.95-4.46.78-.9c1.28.62 2.57 1.23 3.84 1.87 5.09 2.55 9.95 5.42 15.35 7.52 2.66 1.04 6.4 1.28 9.98-.88-1.96-1.17-3.45-2.05-4.93-2.93l-1.02.86c1.39.61 2.79 1.22 4.93 2.15-6.81.81-7.77-3.65-12.67-4.66 5.32-2.2 8.9-.88 12.71.36 4.26 1.39 8.69 2.56 13.18 3.44 3.87.76 8.02.75 11.91 1.47 8.62 1.59 17.17 3.43 25.75 5.14.08.02.28-.3.6-.65-1.09-.36-2.07-.81-3.14-1.03ZM1463.2 73.76c1.78-1.04 3.86-1.78 5.97-2.12 2.25-.71 4.5-1.25 6.78-1.34 6.6-.27 9.78-3.7 13.16-6-4.5 1.23-9.85 2.44-14.96 4.16-5.07 1.71-9.91 3.94-14.84 5.95.18.16.36.33.54.49 1.12-.34 2.24-.73 3.36-1.13Zm-3.36 1.14c-6.28 3.04-12.47 6.21-18.86 9.07-4.27 1.91-8.81 3.37-13.74 4.2 10.69-4.59 21.38-9.17 32.06-13.76.18.16.36.33.54.49ZM555.19 46.27c-9.95-3.41-22.78-6.52-37.91-7.13-3.55-.14-6.95-.14-10.18-.02 6.67.84 13.6 1.86 20.76 3.08a483.12 483.12 0 0 1 27.22 5.44c-.02-.45.04-.92.11-1.37Z"/><path d="M934.86 74.06c-5.91-1.23-11.84-2.45-17.78-3.61-5.91-1.15-11.86-2.2-17.77-3.35a253 253 0 0 1-9.17-1.98c-4.17-.97-8.47-3.14-12.42-2.78-7.51.69-14.44 1.22-20.6-2.75-2.62-1.69-5.66-3.05-8.03-4.91-4.96-3.89-9.42-8.15-14.48-11.96-1.67-1.26-4.47-1.73-6.85-2.36-6.44-1.69-13.25-2.79-19.32-5.03-4.91-1.81-8.88-5.03-13.44-7.43-1.2-.63-3.05-.85-4.59-.79-5.29.18-10.61.3-15.14 3.02-1.09.65-2.72.82-4.13 1.13-4.37.95-8.8 1.75-13.11 2.83-5.31 1.33-10.39 3.36-15.8 4.21-5.68.9-11.63.8-17.47 1.07-7.56.36-15.14.51-22.68 1.02-6 .41-12.23 2.33-17.86 1.57-6.89-.93-13.56-3.55-19.76-6.18-4.46-1.9-8.58-2.19-13.06-.99-17.42 4.66-34.88 9.24-52.13 14.26-8.12 2.36-15.47 3.4-22.42-1.5-3.24-2.28-7.23-2.33-11.54-2.29-1.45.01-2.9 0-4.35-.01-1.24.23-2.27.33-2.99.39-1.55.12-2.39.06-2.79.63-.29.41-.21.97-.11 1.37 3.18-1.01 8.43-2.19 14.36-1.18 5.1.87 7.42 2.95 8.07 3.29 1.14.6 1.66 1.86 2.79 3.22-1.59.2-3.74.47-5.89.73l-1.14-.54-.06-.04c-.54-.14-1.08-.27-1.62-.41l-1.76-.36.15.08c-.66 0-1.32.01-1.98.02.28 2.36-2.06 1.99-3.98 2.37-.98.19-1.95.39-2.92.6.1.34.21.68.29 1.02.07.28.13.56.17.84 3.55-.21 7.21-.44 10.88-.68 2.45-.16 5.01-.21 7.32-.79 10.66-2.68 21.29-5.45 31.86-8.33 13.35-3.64 26.59-7.52 39.98-11.07 3.51-.93 7.14-1.12 9.23 2.45.7 1.2 3.67 1.75 5.74 2.33 2.5.7 5.32.83 7.7 1.68 14.99 5.31 29.9 10.75 45.54 16.4l-32.04 2.86c4.19 1.27 8.25 2.5 12.53 3.79-1-1.16-1.89-2.18-3.2-3.68 9.55-.76 18.53-.84 27.1-2.33 8.4-1.46 14.67 1.75 21.88 3.27 8.02 1.69 16.48 1.89 24.83 1.88v-1.03c-1.57.17-3.14.34-5.11.56.55-.76.9-1.22 1.67-2.27-2.55.2-4.62.36-6.18.48-1.36-.49-2.44-1.16-3.58-1.22-1.73-.08-3.55.12-5.24.47-6.45 1.3-11.33-1.22-16.28-3.6-.11-.05.15-.55.23-.81 1.02.24 1.92.45 2.81.67l-.05-2.41c1.9.18 3.84.37 5.79.56l.53-1.48c-14.23-4.06-28.87-7.16-43.94-9.3.29-.28.69-.67 1.1-1.07-1.18-.27-2.34-.55-3.51-.82.03-.37.06-.74.08-1.11 6.05-.6 12.08-1.44 18.15-1.71 2.79-.13 5.76.63 8.45 1.39 4.52 1.28 8.85 2.94 13.33 4.31.56.17 1.53-.42 2.59-.74 1.87 2.15 8.23-.78 9.47 3.63 1.36.06 3.13.15 4.38.21-4.07-2.74-8.37-5.63-13.36-8.99 4.05-1.31 7.98-2.6 11.92-3.86 4.48-1.43 8.84-3.5 13.5-4.08 4.19-.51 7.58-2.15 11.36-2.89 4.27-.83 10.01-1.41 13.32.11 5.21 2.39 9.85 6.2 13.06 10.18 4.39 5.45 9.32 10.18 16.58 13.45 2.28 1.03 4.54 2.09 6.81 3.14l.68-.86c-1.91-.94-3.83-1.88-6.06-2.98.75-.33 1.3-.57 2.42-1.06-6.53-1.88-3.17-6.07-4.77-9.41 3.5 1.22 4.35 5.22 10.05 4.36-2.39-1.67-4.07-2.84-5.75-4.02.06-.29.13-.59.19-.88 1.92.15 4.23-.15 5.66.57 2.12 1.06 3.75 2.76 5.33 4.34 5.2 5.21 10.24 10.5 15.42 15.72 2.42 2.44 4.97 4.81 7.56 7.14 1.08.97 2.43 1.78 3.65 2.67.21-.18.42-.36.64-.54l-4.21-5.06 2.94-.06-4.95-4.46.78-.9c1.28.62 2.57 1.23 3.84 1.87 5.09 2.55 9.95 5.42 15.35 7.52 2.66 1.04 6.4 1.28 9.98-.88-1.96-1.17-3.45-2.05-4.93-2.93l-1.02.86c1.39.61 2.79 1.22 4.93 2.15-6.81.81-7.77-3.65-12.67-4.66 5.32-2.2 8.9-.88 12.71.36 4.26 1.39 8.69 2.56 13.18 3.44 3.87.76 8.02.75 11.91 1.47 8.62 1.59 17.17 3.43 25.75 5.14.08.02.28-.3.6-.65-1.09-.36-2.07-.81-3.14-1.03ZM481.19 48.58c1.78-1.04 3.86-1.78 5.97-2.12 2.25-.71 4.5-1.25 6.78-1.34 6.6-.27 9.78-3.7 13.16-6-4.5 1.23-9.85 2.44-14.96 4.16-5.07 1.71-9.91 3.94-14.84 5.95.18.16.36.33.54.49 1.12-.34 2.24-.73 3.36-1.13Zm-3.36 1.13c-6.28 3.04-12.47 6.21-18.86 9.07-4.27 1.91-8.81 3.37-13.74 4.2 10.69-4.59 21.38-9.17 32.06-13.76.18.16.36.33.54.49Zm-367.87-6.48c-9.95-3.41-22.78-6.52-37.91-7.13-3.55-.14-6.95-.14-10.18-.02 6.67.84 13.6 1.86 20.76 3.08a483.12 483.12 0 0 1 27.22 5.44c-.02-.45.04-.92.11-1.37Z"/><path d="M489.63 71.01c-5.91-1.23-11.84-2.45-17.78-3.61-5.91-1.15-11.86-2.2-17.77-3.35a253 253 0 0 1-9.17-1.98c-4.17-.97-8.47-3.14-12.42-2.78-7.51.69-14.44 1.22-20.6-2.75-2.62-1.69-5.66-3.05-8.03-4.91-4.96-3.89-9.42-8.15-14.48-11.96-1.67-1.26-4.47-1.73-6.85-2.36-6.44-1.69-13.25-2.79-19.32-5.03-4.91-1.81-8.88-5.03-13.44-7.43-1.2-.63-3.05-.85-4.59-.79-5.29.18-10.61.3-15.14 3.02-1.09.65-2.72.82-4.13 1.13-4.37.95-8.8 1.75-13.11 2.83-5.31 1.33-10.39 3.36-15.8 4.21-5.68.9-11.63.8-17.47 1.07-7.56.36-15.14.51-22.68 1.02-6 .41-12.23 2.33-17.86 1.57-6.89-.93-13.56-3.55-19.76-6.18-4.46-1.9-8.58-2.19-13.06-.99-17.42 4.66-34.88 9.24-52.13 14.26-8.12 2.36-15.47 3.4-22.42-1.5-3.24-2.28-7.23-2.33-11.54-2.29-1.45.01-2.9 0-4.35-.01-1.24.23-2.27.33-2.99.39-1.55.12-2.39.06-2.79.63-.29.41-.21.97-.11 1.37 3.18-1.01 8.43-2.19 14.36-1.18 5.1.87 7.42 2.95 8.07 3.29 1.14.6 1.66 1.86 2.79 3.22-1.59.2-3.74.47-5.89.73l-1.14-.54-.06-.04c-.54-.14-1.08-.27-1.62-.41l-1.76-.36.15.08c-.66 0-1.32.01-1.98.02.28 2.36-2.06 1.99-3.98 2.37-.98.19-1.95.39-2.92.6.1.34.21.68.29 1.02.07.28.13.56.17.84 3.55-.21 7.21-.44 10.88-.68 2.45-.16 5.01-.21 7.32-.79 10.66-2.68 21.29-5.45 31.86-8.33 13.35-3.64 26.59-7.52 39.98-11.07 3.51-.93 7.14-1.12 9.23 2.45.7 1.2 3.67 1.75 5.74 2.33 2.5.7 5.32.83 7.7 1.68 14.99 5.31 29.9 10.75 45.54 16.4l-32.04 2.86c4.19 1.27 8.25 2.5 12.53 3.79-1-1.16-1.89-2.18-3.2-3.68 9.55-.76 18.53-.84 27.1-2.33 8.4-1.46 14.67 1.75 21.88 3.27 8.02 1.69 16.48 1.89 24.83 1.88v-1.03c-1.57.17-3.14.34-5.11.56.56-.76.9-1.22 1.67-2.27-2.55.2-4.62.36-6.18.48-1.36-.49-2.44-1.16-3.58-1.22-1.73-.08-3.55.12-5.24.47-6.45 1.3-11.33-1.22-16.28-3.6-.11-.05.15-.55.23-.81 1.02.24 1.92.45 2.81.67l-.05-2.41c1.9.18 3.84.37 5.79.56l.53-1.48c-14.23-4.06-28.87-7.16-43.94-9.3.29-.28.69-.67 1.1-1.07-1.18-.27-2.34-.55-3.51-.82.03-.37.06-.74.08-1.11 6.05-.6 12.08-1.44 18.15-1.71 2.79-.13 5.76.63 8.45 1.39 4.52 1.28 8.85 2.94 13.33 4.31.56.17 1.53-.42 2.59-.74 1.87 2.15 8.23-.78 9.47 3.63 1.36.06 3.13.15 4.38.21-4.07-2.74-8.37-5.63-13.36-8.99 4.05-1.31 7.98-2.6 11.92-3.86 4.48-1.43 8.84-3.5 13.5-4.08 4.19-.51 7.58-2.15 11.36-2.89 4.27-.83 10.01-1.41 13.32.11 5.21 2.39 9.85 6.2 13.06 10.18 4.39 5.45 9.32 10.18 16.58 13.45 2.28 1.03 4.54 2.09 6.81 3.14l.68-.86c-1.91-.94-3.83-1.88-6.06-2.98.75-.33 1.3-.57 2.42-1.06-6.53-1.88-3.17-6.07-4.77-9.41 3.5 1.22 4.35 5.22 10.05 4.36-2.39-1.67-4.07-2.84-5.75-4.02.06-.29.13-.59.19-.88 1.92.15 4.23-.15 5.66.57 2.12 1.06 3.75 2.76 5.33 4.34 5.2 5.21 10.24 10.5 15.42 15.72 2.42 2.44 4.97 4.81 7.56 7.14 1.08.97 2.43 1.78 3.65 2.67.21-.18.42-.36.64-.54l-4.21-5.06 2.94-.06-4.95-4.46.78-.9c1.28.62 2.57 1.23 3.84 1.87 5.09 2.55 9.95 5.42 15.35 7.52 2.66 1.04 6.4 1.28 9.98-.88-1.96-1.17-3.45-2.05-4.93-2.93l-1.02.86c1.39.61 2.79 1.22 4.93 2.15-6.81.81-7.77-3.65-12.67-4.66 5.32-2.2 8.9-.88 12.71.36 4.26 1.39 8.69 2.56 13.18 3.44 3.87.76 8.02.75 11.91 1.47 8.62 1.59 17.17 3.43 25.75 5.14.08.02.28-.3.6-.65-1.09-.36-2.07-.81-3.14-1.03ZM35.96 45.54c1.78-1.04 3.86-1.78 5.97-2.12 2.25-.71 4.5-1.25 6.78-1.34 6.6-.27 9.78-3.7 13.16-6-4.5 1.23-9.85 2.44-14.96 4.16-5.07 1.71-9.91 3.94-14.84 5.95.18.16.36.33.54.49 1.12-.34 2.24-.73 3.36-1.13Z"/><path d="M32.6 46.67c-6.28 3.04-12.47 6.21-18.86 9.07-4.27 1.91-8.81 3.37-13.74 4.2 10.69-4.59 21.38-9.17 32.06-13.76.18.16.36.33.54.49Z"/><text style="font-family:MyriadPro-Regular,&quot;Myriad Pro&quot;;font-size:3.08px" transform="translate(89.93 100.04)"><tspan x="0" y="0">FFD912</tspan></text></svg>